<?xml version="1.0" standalone="no"?>
<!DOCTYPE svg PUBLIC "-//W3C//DTD SVG 1.1//EN" "http://www.w3.org/Graphics/SVG/1.1/DTD/svg11.dtd" >
<svg xmlns="http://www.w3.org/2000/svg" xmlns:xlink="http://www.w3.org/1999/xlink" version="1.1">
<metadata>
Created by FontForge 20150102 at Sat Feb 14 07:19:36 2015
 By uniteet7
Copyright (c) Chatnarong Jingsuphatada 2010. All rights reserved.
</metadata>
<defs>
<font id="KunlasatriBold" horiz-adv-x="0" >
  <font-face 
    font-family="KunlasatriBold"
    font-weight="700"
    font-stretch="normal"
    units-per-em="2048"
    panose-1="2 0 0 0 0 0 0 0 0 0"
    ascent="1638"
    descent="-410"
    x-height="889"
    cap-height="1040"
    bbox="-837 -507 1381 1595"
    underline-thickness="72"
    underline-position="-149"
    unicode-range="U+0020-25CC"
  />
<missing-glyph horiz-adv-x="1536" 
d="M256 0v1280h1024v-1280h-1024zM1238 32q10 0 10 10v1196q0 10 -10 10h-940q-10 0 -10 -10v-1196q0 -10 10 -10h940z" />
    <glyph glyph-name="quotedblleft" unicode="&#x91;&#x91;" horiz-adv-x="452" 
d="M57 1203h95v-71q0 -11 16.5 -19.5t40.5 -10.5v-111q-47 0 -77 12t-46.5 32t-22.5 45.5t-6 51.5v71zM243 1203h95v-71q0 -11 16.5 -19.5t40.5 -10.5v-111q-47 0 -77 12t-46.5 32t-22.5 45.5t-6 51.5v71z" />
    <glyph glyph-name="quotedblright" unicode="&#x92;&#x92;" horiz-adv-x="452" 
d="M395 991h-95v71q0 11 -16.5 19.5t-40.5 10.5v111q47 0 77 -12t46.5 -32t22.5 -45.5t6 -51.5v-71zM209 991h-95v71q0 11 -16.5 19.5t-40.5 10.5v111q47 0 77 -12t46.5 -32t22.5 -45.5t6 -51.5v-71z" />
    <glyph glyph-name="copyright2" unicode="&#x3b;&#x3b;For&#x20;Education&#x20;Used&#x20;Only&#x3b;&#x3b;" horiz-adv-x="1296" 
 />
    <glyph glyph-name="registered2" unicode="&#x3b;&#x3b;Registered&#x3b;&#x3b;" horiz-adv-x="1296" 
 />
    <glyph glyph-name="trademark2" unicode="&#x3b;&#x3b;Trademark&#x3b;&#x3b;" horiz-adv-x="1938" 
 />
    <glyph glyph-name="multiply2" unicode="&#x3b;&#x3b;Multiply&#x3b;&#x3b;" horiz-adv-x="651" 
d="M594 712l-195 -194l195 -196l-75 -72l-193 193l-196 -194l-73 74l194 195l-194 195l73 73l195 -195l195 195z" />
    <glyph glyph-name="divide2" unicode="&#x3b;&#x3b;Divide&#x3b;&#x3b;" horiz-adv-x="993" 
d="M936 654v-126h-879v126h879zM490 424q36 0 61 -24.5t25 -61.5q0 -36 -23.5 -61t-62.5 -25q-16 0 -31 6.5t-27 18.5t-19 27.5t-7 33.5t7 34t19 27.5t27 18t31 6.5zM490 949q18 0 33.5 -7t27.5 -18.5t18.5 -27t6.5 -33.5q0 -16 -6 -31.5t-17.5 -27.5t-27.5 -19t-35 -7
q-16 0 -31 7t-27 19t-19 27.5t-7 31.5q0 18 7 33.5t19 27t27 18.5t31 7z" />
    <glyph glyph-name="rulakkhangyao" unicode="&#xc4;&#xd2;" horiz-adv-x="1160" 
d="M831 900q85 0 131.5 -19t68.5 -56.5t25.5 -94t3.5 -132.5v-916h-113v968q0 33 -2 60.5t-12.5 46.5t-34.5 29.5t-67 10.5q-16 0 -29 -1t-25.5 -5t-25 -12.5t-27.5 -23.5q31 -67 31 -159v-914h-113v914q0 105 -51 153t-156 48q-36 0 -69 -3t-61.5 -12.5t-51.5 -26.5
t-40 -44v-588q0 -28 29 -28h70v-95h-69q-27 0 -52.5 4.5t-45.5 18t-32.5 36.5t-12.5 61v628q32 49 65.5 78.5t73.5 46t87.5 22t107.5 5.5q70 0 128 -17.5t99 -46.5q41 38 81 51t89 13z" />
    <glyph glyph-name="lulakkhangyao" unicode="&#xc6;&#xd2;" horiz-adv-x="1189" 
d="M861 900q85 0 131.5 -19t68 -56.5t25 -94.5t3.5 -132v-910h-113v961q0 35 -3 62.5t-14.5 46.5t-34.5 29t-63 10q-17 0 -30 -1t-25 -5t-24.5 -12.5t-27.5 -23.5q17 -33 23.5 -71.5t6.5 -87.5v-908h-113v908q0 105 -50.5 153t-156.5 48q-35 0 -67.5 -3.5t-61 -13t-52 -27
t-40.5 -44.5v-586q0 -36 -12 -60t-32 -38t-45.5 -19.5t-52.5 -5.5h-69v95h69q13 0 21 7.5t8 20.5v625q32 49 65.5 78.5t73.5 46t87.5 22t106.5 5.5q70 0 128.5 -17.5t98.5 -46.5q41 37 81 50.5t90 13.5z" />
    <glyph glyph-name=".notdef" horiz-adv-x="1536" 
d="M256 0v1280h1024v-1280h-1024zM1238 32q10 0 10 10v1196q0 10 -10 10h-940q-10 0 -10 -10v-1196q0 -10 10 -10h940z" />
    <glyph glyph-name=".null" 
 />
    <glyph glyph-name="nonmarkingreturn" horiz-adv-x="579" 
 />
    <glyph glyph-name="space" unicode=" " horiz-adv-x="550" 
 />
    <glyph glyph-name="exclam" unicode="!" horiz-adv-x="315" 
d="M102 199q-2 122 -4 216t-3 165t-2 121t-1 84q-1 79 -1 98q0 28 19 47.5t47 19.5q27 0 46.5 -19.5t19.5 -47.5q0 -19 -1 -98q0 -34 -1 -84t-2 -121t-2.5 -165t-3.5 -216h-111zM158 138q29 0 48 -20t19 -49t-19 -49t-48 -20t-49.5 20t-20.5 49t20.5 49t49.5 20z" />
    <glyph glyph-name="quotedbl" unicode="&#x22;" horiz-adv-x="421" 
d="M198 1150q-12 -43 -16 -102t-5 -122h-95q0 32 -2.5 65t-6.5 63t-8.5 55t-7.5 41h141zM364 1150q-12 -43 -16 -102t-5 -122h-95q0 32 -3 65t-6.5 63t-8 55t-8.5 41h142z" />
    <glyph glyph-name="numbersign" unicode="#" horiz-adv-x="1154" 
d="M825 623q-14 -51 -29 -100l-30 -98l-8 -27h250v-103h-280l-87 -295h-115l89 295h-292l-88 -295h-115l89 295h-183v103h211l68 225h-219v104h247l93 318h114l-91 -318h291q23 75 46 159.5t46 158.5h114l-91 -318h214v-104h-244zM710 623h-291q-11 -42 -23.5 -80t-24.5 -77
q-5 -21 -9.5 -33.5t-11.5 -34.5h293z" />
    <glyph glyph-name="dollar" unicode="$" horiz-adv-x="919" 
d="M516 595q60 -13 117.5 -32t102 -52t71.5 -83t27 -123t-20 -131t-59.5 -99t-97 -63t-132.5 -22h-9v-94h-113v96q-42 5 -85.5 17t-85.5 35.5t-81.5 60t-73.5 89.5l100 43q42 -61 101 -93.5t125 -45.5v402q-61 12 -118 28.5t-101.5 45.5t-71.5 76.5t-27 122.5q0 58 24.5 107
t67.5 85t101 58t125 27v96h113v-96q50 -8 96 -27t86 -44t73.5 -53.5t60.5 -53.5l-73 -52q-29 30 -67 56q-32 22 -77 42t-99 26v-349zM198 773q0 -39 16 -65t43.5 -43.5t65 -28t80.5 -19.5v328q-44 -4 -81.5 -19t-65 -38.5t-43 -52.5t-15.5 -62zM525 95q45 0 81.5 15t62 43
t39 66.5t13.5 85.5q0 38 -16.5 66t-44 48.5t-65 34t-79.5 23.5v-382h9z" />
    <glyph glyph-name="percent" unicode="%" horiz-adv-x="946" 
d="M207 0h-122l652 1051h123zM261 836q-24 0 -44.5 -9t-36.5 -24.5t-25 -36.5t-9 -45t9 -44.5t25 -36.5t36.5 -25t44.5 -9t45 9t36.5 25t24.5 36.5t9 44.5t-9 45t-24.5 36.5t-36.5 24.5t-45 9zM261 681q-17 0 -28.5 11.5t-11.5 28.5t11.5 28.5t28.5 11.5t28.5 -11.5
t11.5 -28.5t-11.5 -28.5t-28.5 -11.5zM681 430q-24 0 -44.5 -9t-36.5 -24.5t-25 -36.5t-9 -45t9 -44.5t25 -36.5t36.5 -25t44.5 -9t45 9t36.5 25t24.5 36.5t9 44.5t-9 45t-24.5 36.5t-36.5 24.5t-45 9zM681 275q-17 0 -28.5 11.5t-11.5 28.5t11.5 28.5t28.5 11.5t28.5 -11.5
t11.5 -28.5t-11.5 -28.5t-28.5 -11.5z" />
    <glyph glyph-name="ampersand" unicode="&#x26;" horiz-adv-x="1089" 
d="M462 621q-50 -33 -97.5 -66.5t-84.5 -73.5t-59.5 -88.5t-22.5 -109.5q0 -39 12.5 -73.5t36 -60t57.5 -40t77 -14.5q16 0 34.5 3.5t52 19.5t88 48.5t141.5 90.5zM438 881q0 -20 7.5 -44.5t33.5 -64.5q40 29 63.5 56t23.5 53q0 28 -18 47t-45 19q-14 0 -26 -6t-20.5 -15.5
t-13.5 -21t-5 -23.5zM836 232l168 -232h-121l-129 177q-86 -62 -143 -99t-97.5 -56.5t-70.5 -25.5t-62 -6q-80 0 -136 26t-91.5 67.5t-52 94t-16.5 105.5q0 78 28 140t73 113t100.5 92.5t111.5 77.5q-21 28 -33.5 53t-18.5 47t-8 41t-2 34q0 34 12.5 65t34.5 54t52.5 36.5
t67.5 13.5q35 0 65.5 -14t53 -37.5t35.5 -54t13 -63.5q0 -57 -31 -105.5t-99 -99.5q51 -71 87 -123.5t61 -89.5t40 -62t24.5 -41t15 -26.5t11.5 -18.5q15 10 31 21.5t32 23.5t31 23t27 20l51 -92z" />
    <glyph glyph-name="quotesingle" unicode="'" horiz-adv-x="312" 
d="M227 1150q-12 -43 -16 -102t-5 -122h-95q0 32 -2.5 65t-6.5 63t-8.5 55t-7.5 41h141z" />
    <glyph glyph-name="parenleft" unicode="(" horiz-adv-x="442" 
d="M212 152q0 -35 3.5 -62t18.5 -46t45 -29t83 -10v-105q-98 0 -151.5 19t-78 57t-28.5 95t-4 132v596q0 75 4 131t28.5 94t78 57t151.5 19v-104q-53 0 -83 -10t-45 -29t-18.5 -46.5t-3.5 -62.5v-696z" />
    <glyph glyph-name="parenright" unicode=")" horiz-adv-x="442" 
d="M230 848q0 35 -4 62.5t-19 46.5t-45 29t-82 10v104q98 0 151.5 -19t78 -57t28.5 -94t4 -131v-596q0 -75 -4 -132t-28.5 -95t-78 -57t-151.5 -19v105q52 0 82 10t45 29t19 46t4 62v696z" />
    <glyph glyph-name="asterisk" unicode="*" horiz-adv-x="539" 
d="M507 1240l-145 -44q7 -9 20 -27t27.5 -37t26.5 -36t18 -25l-92 -65l-92 123q-8 -10 -21 -27.5t-27 -36.5t-26 -35.5t-18 -24.5l-93 67l93 127q-3 1 -4.5 2t-13 5t-40.5 14t-87 31l37 105l143 -52v162h113v-164q46 14 71.5 22t39 12t20.5 6t16 5z" />
    <glyph glyph-name="plus" unicode="+" horiz-adv-x="768" 
d="M711 480h-275v-275h-104v275h-275v104h275v275h104v-275h275v-104z" />
    <glyph glyph-name="comma" unicode="," horiz-adv-x="293" 
d="M121 42h114l-64 -238h-114z" />
    <glyph glyph-name="hyphen" unicode="-" horiz-adv-x="656" 
d="M656 566v-104h-656v104h656z" />
    <glyph glyph-name="period" unicode="." horiz-adv-x="242" 
d="M120 128q26 0 45.5 -20t19.5 -45q0 -12 -5.5 -23t-14.5 -20t-20.5 -14.5t-24.5 -5.5q-11 0 -22 5.5t-20 14.5t-15 20t-6 23t6 24t15 21t20 14.5t22 5.5z" />
    <glyph glyph-name="slash" unicode="/" horiz-adv-x="736" 
d="M201 -100h-116l450 1200h116z" />
    <glyph glyph-name="zero" unicode="0" horiz-adv-x="994" 
d="M507 1050q98 0 177 -35.5t134.5 -104t85 -170t29.5 -233.5q0 -63 -8 -126t-27.5 -120.5t-51.5 -107t-79.5 -86t-112.5 -57t-150 -20.5q-99 0 -181 31.5t-140.5 95t-91 161t-32.5 229.5t32.5 233.5t92 170t142 104t181.5 35.5zM505 93q70 0 128 26.5t99.5 79t64.5 130
t23 178.5q0 102 -22.5 183.5t-64 138.5t-99 87.5t-127.5 30.5q-71 0 -132.5 -30.5t-106.5 -87.5t-70.5 -138.5t-25.5 -183.5q0 -47 7 -95.5t23.5 -94.5t42 -86.5t62.5 -70.5t86 -48t112 -19z" />
    <glyph glyph-name="one" unicode="1" horiz-adv-x="603" 
d="M362 1050q26 0 51.5 -4.5t45.5 -17.5t32 -36t12 -60v-932h-113v929q0 15 -25 17l-308 -89v112z" />
    <glyph glyph-name="two" unicode="2" horiz-adv-x="923" 
d="M203 299q0 -57 18 -96.5t51.5 -63.5t80.5 -35t106 -11q15 0 43 0.5t62 1.5t71.5 2.5t72 4t63 5.5t45.5 8v-99q-14 -4 -41.5 -7.5t-62.5 -6.5t-73 -5.5t-73 -4t-63 -2t-43 -0.5q-89 0 -158.5 17t-117.5 54t-73.5 95.5t-25.5 142.5q0 77 27.5 125t72 77t101.5 43
t116.5 22.5t116.5 16.5t101.5 25t72 47.5t27.5 83.5q0 97 -68 152t-187 55h-320v104h320q90 0 159.5 -22t117 -63t72 -98.5t24.5 -127.5q0 -79 -27.5 -128t-72 -78t-101.5 -43.5t-116.5 -23t-116.5 -16t-101.5 -23.5t-72 -46t-27.5 -82z" />
    <glyph glyph-name="three" unicode="3" horiz-adv-x="932" 
d="M833 659q-2 -51 -22.5 -88t-52.5 -64q29 -26 49.5 -63t25.5 -85v-37q0 -166 -99 -249t-277 -83q-180 0 -276 90.5t-96 272.5h113q0 -67 18.5 -116t52.5 -81t82 -47.5t107 -15.5t107 14t82.5 42.5t53.5 71.5t19 101v33q0 55 -34 77.5t-115 22.5h-206v109h206q81 0 115 21
t34 75v61q0 58 -19 100.5t-53.5 70t-82.5 41t-107 13.5t-106.5 -11.5t-80.5 -41t-52 -80t-21 -127.5h-113q0 103 24.5 172.5t71.5 112t116.5 61t159.5 18.5q178 0 277 -82t99 -247v-62v0z" />
    <glyph glyph-name="four" unicode="4" horiz-adv-x="1000" 
d="M943 301h-93v-301h-112v301h-259q-191 0 -292.5 87t-101.5 262v400h113v-400q0 -8 1.5 -29.5t9 -49t24.5 -57t48 -53.5t79.5 -40t118.5 -16h258v645h113v-645h93v-104z" />
    <glyph glyph-name="five" unicode="5" horiz-adv-x="917" 
d="M455 612q89 0 159 -14t118 -47.5t73.5 -89t25.5 -138.5q0 -166 -99 -249.5t-277 -83.5q-15 0 -44 1t-65.5 2.5t-77 3.5t-77 5t-65 6.5t-42.5 7.5v102q17 -5 47 -9t66.5 -6.5t76 -4.5t75 -3t64 -1.5t43.5 -0.5q59 0 107 14t82.5 42.5t53.5 71.5t19 102q0 57 -19 93.5
t-53.5 57t-82.5 28.5t-107 8h-371v540h692v-104h-579v-334h257v0z" />
    <glyph glyph-name="six" unicode="6" horiz-adv-x="915" 
d="M456 650q177 0 276 -81t99 -247t-99 -249t-276 -83q-181 0 -276.5 82.5t-95.5 249.5v383q0 175 86.5 260t272.5 85q67 0 122.5 -10t104 -32t91 -57t82.5 -84l-76 -75q-36 44 -72 74t-75 48t-82.5 25.5t-94.5 7.5q-60 0 -106 -17.5t-77 -49t-47 -76t-16 -99.5v-122
q49 32 115 49.5t144 17.5zM457 93q58 0 106.5 13.5t82.5 41.5t53 71t19 101t-19 100.5t-53 70t-82.5 41t-106.5 13.5q-60 0 -108 -13t-81.5 -41t-52 -70.5t-18.5 -100.5q0 -59 18.5 -102t52 -71t81.5 -41t108 -13z" />
    <glyph glyph-name="seven" unicode="7" horiz-adv-x="856" 
d="M668 1050q36 -2 65 -16q25 -12 45.5 -38.5t20.5 -76.5l-288 -919h-116l291 928q0 5 -3 12t-15 7h-611v103h611v0z" />
    <glyph glyph-name="eight" unicode="8" horiz-adv-x="915" 
d="M831 768q0 -41 -8.5 -79.5t-25 -72.5t-41 -61.5t-56.5 -46.5q64 -35 97.5 -93.5t33.5 -140.5q0 -141 -99 -212.5t-277 -71.5q-180 0 -275.5 71t-95.5 213q0 80 35 139.5t97 95.5q-30 19 -54.5 47.5t-41.5 62.5t-26.5 72t-9.5 77q0 143 95.5 212.5t276.5 69.5
q178 0 276.5 -70t98.5 -212zM197 768q0 -48 18 -86.5t52 -66t82 -42t107 -14.5t107 15t82.5 42.5t53.5 66t19 85.5t-18.5 81t-53 55.5t-82.5 32t-107 10.5t-107 -10t-82 -31.5t-52.5 -55.5t-18.5 -82zM456 93q59 0 107 10.5t82.5 33t53.5 56.5t19 81q0 48 -19 83t-53.5 57.5
t-82.5 33.5t-107 11t-107 -11t-82 -33.5t-52 -57.5t-18 -83t18 -82t52 -56t82 -32.5t107 -10.5z" />
    <glyph glyph-name="nine" unicode="9" horiz-adv-x="929" 
d="M458 390q-177 0 -276 81t-99 247t99 249t276 83q181 0 276.5 -82.5t95.5 -249.5v-383q0 -175 -86.5 -260t-272.5 -85q-67 0 -122.5 10t-104 32t-91 56.5t-82.5 84.5l76 75q36 -44 72 -74t75 -48t82.5 -25.5t94.5 -7.5q60 0 106 17.5t77 49t47 76t16 99.5v122
q-49 -32 -115 -49.5t-144 -17.5zM457 947q-59 0 -107 -13.5t-82 -41.5t-53 -71t-19 -101t19 -100.5t53 -70t82 -41t107 -13.5q60 0 108 13t81.5 41t52 70t18.5 101t-18.5 102t-52 70.5t-81.5 41t-108 13.5z" />
    <glyph glyph-name="colon" unicode=":" horiz-adv-x="311" 
d="M156 218q29 0 49.5 -20.5t20.5 -49.5q0 -13 -5.5 -25t-15 -21.5t-22 -15.5t-27.5 -6q-14 0 -26.5 6t-22.5 15.5t-16 21.5t-6 25q0 29 22 49.5t49 20.5zM156 848q29 0 49.5 -20t20.5 -50q0 -29 -20.5 -49.5t-49.5 -20.5q-27 0 -49 20.5t-22 49.5q0 30 22 50t49 20z" />
    <glyph glyph-name="semicolon" unicode=";" horiz-adv-x="254" 
d="M128 848q29 0 49 -20t20 -50q0 -29 -20 -49.5t-49 -20.5q-28 0 -49.5 20.5t-21.5 49.5q0 30 21.5 50t49.5 20zM114 255h96l-111 -417h-96z" />
    <glyph glyph-name="less" unicode="&#x3c;" horiz-adv-x="823" 
d="M766 89l-683 403q-26 16 -26 39t26 39l683 403v-108l-565 -334l565 -334v-108z" />
    <glyph glyph-name="equal" unicode="=" horiz-adv-x="972" 
d="M915 587v-93h-858v93h858zM915 396v-94h-858v94h858z" />
    <glyph glyph-name="greater" unicode="&#x3e;" horiz-adv-x="823" 
d="M57 197l565 334l-565 334v108l683 -403q26 -16 26 -39t-26 -39l-683 -403v108z" />
    <glyph glyph-name="question" unicode="?" horiz-adv-x="917" 
d="M460 1050q90 0 159.5 -14.5t116.5 -49t71.5 -90.5t24.5 -140v-156q0 -32 -11.5 -55t-31 -42t-44.5 -34t-52 -30q-25 -14 -49 -28.5t-43 -32.5t-30.5 -40t-11.5 -51v-87h-112v87q0 51 17 88t43.5 64t59 47t63.5 37q36 20 62.5 38t26.5 39v157q0 58 -18.5 95t-52 58
t-81.5 29t-108 8q-59 0 -107 -6.5t-82.5 -26t-53 -54.5t-18.5 -92v-164h-113v163q0 83 25.5 137.5t73.5 87t117.5 45.5t158.5 13zM580 79q0 -31 -23 -55t-55 -24q-16 0 -30.5 6.5t-25 17.5t-17 25.5t-6.5 29.5t6.5 29t17 25t25 17.5t30.5 6.5t30 -6.5t24.5 -17.5t17 -25
t6.5 -29z" />
    <glyph glyph-name="at" unicode="@" horiz-adv-x="1071" 
d="M519 533q25 0 47.5 -1.5t45.5 -5.5q-2 22 -12.5 34.5t-26 18.5t-35 7.5t-39.5 1.5q-24 0 -57.5 -7t-63.5 -33l-62 66q31 28 56.5 43.5t49.5 22.5t49.5 8t57.5 1q89 0 142.5 -42.5t53.5 -127.5v-195q21 4 46.5 15t48 31.5t38 51t15.5 72.5q0 68 -26 127t-70.5 102
t-104.5 67.5t-127 24.5q-68 0 -130.5 -28.5t-110.5 -76t-76.5 -110t-28.5 -131.5q0 -68 28.5 -135.5t76 -120.5t110 -86t130.5 -33q38 0 87.5 9t99 25t93 38.5t70.5 49.5h127q-41 -53 -99.5 -94.5t-124 -71t-132 -45t-121.5 -15.5q-95 0 -178.5 39.5t-145.5 106t-98.5 153
t-36.5 180.5t36.5 176t99 143t146 95.5t178.5 34.5q94 0 175 -30.5t139.5 -86.5t92 -134t33.5 -173q0 -53 -16.5 -93.5t-42.5 -70.5t-57.5 -50t-62 -32t-57 -17t-40.5 -5h-48q-26 -9 -66.5 -17t-85.5 -8q-48 0 -83 12.5t-58 35t-34.5 52t-11.5 64.5q0 42 10 73.5t33.5 52.5
t61 31.5t92.5 10.5zM612 422q-18 3 -43.5 5.5t-48.5 2.5q-45 0 -65 -12.5t-20 -52.5q0 -15 3 -27t11 -19.5t22.5 -11.5t37.5 -4q29 0 54.5 4t48.5 9v106z" />
    <glyph glyph-name="A" unicode="A" horiz-adv-x="1005" 
d="M530 1050q59 0 116 -16t106 -41.5t88.5 -57t64.5 -61.5v-874h-113v446h-579v-446h-113v644q9 114 47 191.5t96 125t132 68.5t155 21zM792 825q-18 20 -46 41.5t-62.5 39.5t-74 29.5t-78.5 11.5q-55 0 -107.5 -18.5t-96 -57t-74 -96.5t-40.5 -136v-87h579v273z" />
    <glyph glyph-name="B" unicode="B" horiz-adv-x="1009" 
d="M909 700q0 -79 -11 -129.5t-40 -81.5q17 -15 27 -34.5t15.5 -46t7 -60.5t1.5 -78v-139q0 -43 -12.5 -69t-34 -39.5t-49 -18t-57.5 -4.5h-492q-31 0 -60.5 3.5t-52.5 16.5t-37 38.5t-14 68.5v756q25 31 65 61t92.5 53.5t115 38t132.5 14.5q196 0 300 -85.5t104 -264.5z
M505 947q-80 0 -156.5 -24.5t-135.5 -84.5v-297h444q43 0 70.5 8t42.5 27t20.5 49.5t5.5 74.5q0 64 -21 110.5t-59 77t-91.5 45t-119.5 14.5zM796 270q0 42 -3.5 73t-17.5 51.5t-42 30.5t-76 10h-444v-308q0 -16 15.5 -25t35.5 -9h492q17 0 28.5 9t11.5 25v143z" />
    <glyph glyph-name="C" unicode="C" horiz-adv-x="901" 
d="M846 48q-91 -29 -186.5 -43.5t-198.5 -14.5q-90 0 -164.5 34t-128 102.5t-82.5 170.5t-29 237q0 137 29.5 235t82.5 160.5t127.5 91.5t164.5 29q65 0 132.5 -13t123.5 -28q65 -18 127 -40v-116q-26 13 -69.5 29.5t-96 30t-109 23t-108.5 9.5q-63 0 -116.5 -24.5
t-92 -75.5t-60.5 -128.5t-22 -182.5t21.5 -186.5t60.5 -137.5t92.5 -85t116.5 -29q54 0 110 6.5t107.5 16.5t95 21t72.5 20v-112z" />
    <glyph glyph-name="D" unicode="D" horiz-adv-x="934" 
d="M483 1050q90 0 163 -29.5t124 -92.5t78.5 -161t27.5 -235q0 -136 -27.5 -237.5t-78.5 -169t-123.5 -101.5t-162.5 -34q-103 0 -198.5 14.5t-185.5 43.5v919q64 23 130 41q57 16 123.5 29t129.5 13zM484 93q63 0 114.5 29t88 85t56.5 138t20 187t-20 183t-56.5 129.5
t-88.5 77t-115 25.5q-75 0 -146 -15.5t-124 -35.5v-779q54 -11 125 -17.5t146 -6.5z" />
    <glyph glyph-name="E" unicode="E" horiz-adv-x="914" 
d="M212 546h603v-98h-603v-89q0 -9 1.5 -32t10 -53t26 -61.5t50 -58.5t82.5 -44t123 -17h312v-93h-312q-198 0 -303 89.5t-105 269.5v332q0 180 105 269.5t303 89.5h312v-103h-312q-73 0 -123 -16.5t-82.5 -42t-50 -56t-26 -59t-10 -51t-1.5 -31.5v-145z" />
    <glyph glyph-name="F" unicode="F" horiz-adv-x="917" 
d="M100 0v691q0 180 105 269.5t303 89.5h312v-103h-312q-73 0 -123 -16.5t-83 -42t-51 -56t-26.5 -59t-10 -51t-1.5 -31.5v-145h605v-97h-605v-449h-113z" />
    <glyph glyph-name="G" unicode="G" horiz-adv-x="942" 
d="M685 539q31 0 60 -6.5t51 -22.5t35.5 -44.5t13.5 -71.5v-346q-91 -29 -186.5 -43.5t-197.5 -14.5q-90 0 -164.5 34t-128 101.5t-82.5 169t-29 237.5q0 137 29.5 235t82.5 161t128 92.5t165 29.5q63 0 130 -13t124 -28q66 -18 128 -41v-105q-42 15 -86.5 30t-92.5 27
t-99 19.5t-104 7.5q-63 0 -116.5 -25.5t-92.5 -77t-61 -129.5t-22 -183t21.5 -187t60.5 -138t92.5 -85t116.5 -29q75 0 145 6.5t124 17.5v271q0 20 -12.5 32.5t-32.5 12.5h-219v106h219v0z" />
    <glyph glyph-name="H" unicode="H" horiz-adv-x="1006" 
d="M906 1050v-1050h-113v437h-580v-437h-113v1050h113v-506h580v506h113z" />
    <glyph glyph-name="I" unicode="I" horiz-adv-x="393" 
d="M253 1040v-1040h-114v1040h114z" />
    <glyph glyph-name="J" unicode="J" horiz-adv-x="815" 
d="M718 1040v-681q0 -181 -103 -270t-301 -89h-264v93h264q73 0 122.5 17t82 44t50 58.5t25.5 61.5t9.5 53t1.5 32v681h113z" />
    <glyph glyph-name="K" unicode="K" horiz-adv-x="904" 
d="M807 851q0 -114 -31.5 -189t-98.5 -118q68 -42 99 -117.5t31 -190.5v-236h-113v236q0 131 -65.5 191t-197.5 60h-218v-487h-113v1040h113v-446h218q124 0 193.5 61t69.5 196v189h113v-189v0z" />
    <glyph glyph-name="L" unicode="L" horiz-adv-x="885" 
d="M210 1050v-691q0 -9 1.5 -32t10 -53t26 -61.5t50 -58.5t82.5 -44t123 -17h350v-93h-350q-197 0 -301.5 89.5t-104.5 269.5v691h113z" />
    <glyph glyph-name="M" unicode="M" horiz-adv-x="1263" 
d="M865 1050q70 0 125.5 -30t94 -88t58.5 -141.5t20 -190.5v-600h-113v600q0 75 -12.5 138.5t-36 109.5t-58 71.5t-78.5 25.5q-29 0 -56.5 -12.5t-51.5 -32t-44.5 -43.5t-35.5 -48q5 -30 6 -69t1 -89v-651h-115v651q0 68 -9.5 122.5t-29 92.5t-49.5 58.5t-72 20.5
q-38 0 -68 -11t-54 -28t-42.5 -37.5t-31.5 -39.5v-829h-113v874q28 34 58.5 66t67 56.5t81.5 39t102 14.5q68 0 129 -32t99 -91q41 55 95.5 89t132.5 34z" />
    <glyph glyph-name="N" unicode="N" horiz-adv-x="966" 
d="M866 1040v-1040h-113l-540 821v-821h-113v1040h98l555 -810v810h113z" />
    <glyph glyph-name="O" unicode="O" horiz-adv-x="1015" 
d="M515 1050q101 0 183 -31.5t139.5 -96t88.5 -164t31 -235.5q0 -65 -8.5 -130t-28 -124.5t-52.5 -110.5t-82.5 -88t-116 -58.5t-154.5 -21.5q-102 0 -186.5 32t-145 98t-94 166t-33.5 237q0 136 33.5 235.5t94 164t145 96t186.5 31.5zM516 96q73 0 133 27.5t103.5 81
t67.5 133.5t24 185q0 106 -24 185t-67.5 131.5t-104 79t-133.5 26.5q-74 0 -137 -26.5t-109.5 -79t-73 -131.5t-26.5 -185q0 -49 7.5 -99t24.5 -97.5t44 -89t65.5 -72.5t89.5 -49.5t116 -19.5z" />
    <glyph glyph-name="P" unicode="P" horiz-adv-x="967" 
d="M506 1050q196 0 300 -90.5t104 -268.5v-32q0 -83 -26 -128t-65 -65.5t-83 -24t-80 -3.5h-443v-438h-113v873q25 31 65 62.5t92.5 57t115.5 41.5t133 16zM797 691q0 64 -21 112t-59.5 80t-92 48t-119.5 16q-81 0 -157 -29.5t-135 -89.5v-284h443q44 0 71.5 6.5t43 20.5
t21 35.5t5.5 52.5v32z" />
    <glyph glyph-name="Q" unicode="Q" horiz-adv-x="1013" 
d="M956 523q0 -66 -9 -132.5t-30 -126.5t-56 -112t-87 -89l46 -72l-89 -57l-51 81q-69 -25 -164 -25q-102 0 -186.5 32t-145 98t-94 166t-33.5 237q0 136 33.5 235.5t94 164t145 96t186.5 31.5q101 0 182.5 -31.5t138.5 -96t88 -164t31 -235.5zM650 267l63 -103
q60 52 95 142t35 217q0 106 -24 185.5t-67 132.5t-103.5 79.5t-132.5 26.5q-74 0 -137 -26.5t-109.5 -79.5t-73 -132.5t-26.5 -185.5q0 -49 7.5 -99.5t24.5 -98.5t44 -90t65.5 -73.5t89 -50t115.5 -18.5q20 0 49 6t56 14l-60 97z" />
    <glyph glyph-name="R" unicode="R" horiz-adv-x="1004" 
d="M931 0h-131l-274 438h-313v-438h-113v873q25 31 65 62.5t92.5 57t115.5 41.5t133 16q196 0 300 -90.5t104 -268.5v-32q0 -83 -26 -128t-65 -65.5t-83 -24t-80 -3.5zM656 544q44 0 71.5 6.5t43 20.5t21 35.5t5.5 52.5v32q0 64 -21 112t-59.5 80t-92 48t-119.5 16
q-81 0 -157 -29.5t-135 -89.5v-284h443z" />
    <glyph glyph-name="S" unicode="S" horiz-adv-x="886" 
d="M173 777q0 -52 28 -84.5t74.5 -53t105 -34t120 -27t120.5 -32t105.5 -49t74.5 -78t28 -119.5q0 -151 -82 -230.5t-238 -79.5q-51 0 -111.5 4.5t-122.5 25.5t-120.5 63.5t-106.5 118.5l104 40q30 -43 72 -71.5t89.5 -46t98 -24.5t98.5 -7q95 0 149 54.5t54 152.5
q0 48 -28 78.5t-74.5 50.5t-105.5 34t-120.5 28.5t-120 34t-105 51.5t-74.5 80t-28 120q0 66 29.5 116.5t80.5 85.5t119.5 53t145.5 18q64 0 121.5 -17.5t107.5 -44.5t91 -59.5t73 -61.5l-70 -78q-50 44 -105 79q-23 15 -49.5 29t-54.5 25t-57 18t-57 7q-53 0 -100.5 -12.5
t-82.5 -35t-55.5 -54t-20.5 -68.5z" />
    <glyph glyph-name="T" unicode="T" horiz-adv-x="922" 
d="M865 937h-349v-937h-113v937h-346v103h808v-103z" />
    <glyph glyph-name="U" unicode="U" horiz-adv-x="953" 
d="M855 1040v-685q0 -97 -23 -166t-69.5 -113.5t-117.5 -65t-166 -20.5q-198 0 -290 91t-92 274v685h113v-685q0 -133 69 -196t202 -63q132 0 196.5 63t64.5 196v685h113z" />
    <glyph glyph-name="V" unicode="V" horiz-adv-x="921" 
d="M467 193l298 847h123l-360 -1000q-18 -50 -60 -50q-20 0 -37.5 12t-26.5 38q-93 257 -187.5 504t-183.5 496h124z" />
    <glyph glyph-name="W" unicode="W" horiz-adv-x="1245" 
d="M202 1050v-610q0 -75 14.5 -138t40.5 -109t63 -71.5t81 -25.5q42 0 72 20.5t49.5 58.5t29 92.5t9.5 123.5v659h113v-659q0 -51 -0.5 -89.5t-5.5 -68.5q15 -24 36 -48.5t45 -44t51 -32t56 -12.5q44 0 78.5 25.5t58 71.5t36 109t12.5 138v610h114v-610q0 -107 -20 -190.5
t-58.5 -141t-94 -88t-126.5 -30.5q-77 0 -131.5 33t-95.5 90q-37 -61 -98 -92t-130 -31q-71 0 -128.5 30.5t-98.5 88t-63 141t-22 190.5v610h113z" />
    <glyph glyph-name="X" unicode="X" horiz-adv-x="999" 
d="M902 841q0 -50 -4 -93.5t-18 -80.5t-40.5 -68t-71.5 -56q66 -44 100 -120t34 -187v-236h-113v236q0 130 -66 190t-198 60h-42q-132 0 -202.5 -60t-70.5 -190v-236h-113v236q0 114 34.5 189.5t104.5 118.5q-71 41 -105 111.5t-34 185.5v209h113v-209q0 -67 19.5 -114
t55 -77t86 -43.5t112.5 -13.5h42q62 0 111 13.5t83 43.5t52 77t18 114v209h113v-209v0z" />
    <glyph glyph-name="Y" unicode="Y" horiz-adv-x="872" 
d="M815 795q0 -90 -20 -154t-60 -106t-100.5 -64.5t-141.5 -28.5v-442h-113v442q-87 5 -148.5 28.5t-100.5 67t-56.5 107.5t-17.5 150v246h113v-246q0 -131 69 -189.5t201 -58.5q133 0 197.5 58.5t64.5 189.5v246h113v-246v0z" />
    <glyph glyph-name="Z" unicode="Z" horiz-adv-x="917" 
d="M171 200q0 -61 26.5 -84t69.5 -23h593v-93h-593q-36 0 -73.5 5t-67.5 25t-49 60t-19 110q0 80 29.5 133.5t77.5 90.5t110 61t126 45t126 43t110 55t77.5 81t29.5 120q0 34 -8 55.5t-23.5 33t-38 15.5t-51.5 4h-566v103h566q39 0 80 -3.5t75.5 -23.5t56.5 -62.5t22 -121.5
q0 -91 -29.5 -152t-77.5 -102t-110 -66.5t-126 -45.5t-126 -39t-110 -47t-77.5 -70t-29.5 -107z" />
    <glyph glyph-name="bracketleft" unicode="[" horiz-adv-x="362" 
d="M212 20q0 -12 8.5 -19.5t21.5 -7.5h69v-93h-69q-27 0 -52.5 5t-45.5 18t-32 36.5t-12 60.5v961q0 37 12 60.5t32 36.5t45.5 17.5t52.5 4.5h69v-83h-69q-13 0 -21.5 -7.5t-8.5 -20.5v-969z" />
    <glyph glyph-name="backslash" unicode="\" horiz-adv-x="735" 
d="M650 -99h-116l-449 1198h117z" />
    <glyph glyph-name="bracketright" unicode="]" horiz-adv-x="362" 
d="M150 989q0 13 -8.5 20.5t-21.5 7.5h-69v83h69q27 0 52.5 -4.5t45.5 -17.5t32 -36.5t12 -60.5v-961q0 -37 -12 -60.5t-32 -36.5t-45.5 -18t-52.5 -5h-69v93h69q13 0 21.5 7.5t8.5 19.5v969z" />
    <glyph glyph-name="asciicircum" unicode="^" horiz-adv-x="421" 
d="M364 739h-114l-40 167l-38 -167h-115l98 267q7 19 20.5 31.5t35.5 12.5q18 0 32 -10t24 -34z" />
    <glyph glyph-name="underscore" unicode="_" horiz-adv-x="653" 
d="M654 95v-105h-654v105h654z" />
    <glyph glyph-name="grave" unicode="`" horiz-adv-x="347" 
d="M85 1338h114l63 -238h-114z" />
    <glyph glyph-name="a" unicode="a" horiz-adv-x="864" 
d="M457 900q163 0 235 -78t72 -229v-593h-114v31q-48 -12 -105 -26.5t-128 -14.5q-86 0 -149 19t-104.5 54t-61.5 84t-20 110q0 75 27.5 130t75.5 91t112 53t138 17q63 0 119 -6.5t96 -17.5v69q0 46 -11.5 83.5t-35 64.5t-60 41.5t-86.5 14.5q-44 0 -80.5 -6.5t-69.5 -22
t-63 -41t-60 -63.5l-77 73q35 45 72.5 76t80 50.5t91.5 28t106 8.5zM650 420q-18 4 -43.5 8.5t-54.5 8t-59 5.5t-57 2q-53 0 -97 -10t-76.5 -32.5t-50.5 -58t-18 -86.5q0 -78 53 -121t170 -43q67 0 126 15.5t107 29.5v282z" />
    <glyph glyph-name="b" unicode="b" horiz-adv-x="882" 
d="M468 900q76 0 139.5 -30.5t109 -90t70.5 -147.5t25 -202q0 -78 -17 -140.5t-45.5 -111.5t-66 -84.5t-78 -58.5t-81 -34t-76.5 -11q-20 0 -42 1t-49.5 4.5t-62.5 11t-81 19.5v-26h-113v1100h113v-245q52 19 118 32t137 13zM448 95q38 0 82 19.5t81.5 60.5t62 104.5
t24.5 150.5q0 86 -16.5 154t-47 115.5t-73 72.5t-93.5 25q-38 0 -76 -6t-71.5 -15t-61.5 -20t-46 -22v-602q46 -13 86 -20.5t71 -11t51 -4.5t27 -1z" />
    <glyph glyph-name="c" unicode="c" horiz-adv-x="809" 
d="M738 25q-38 -6 -87 -12t-98 -11.5t-91 -8.5t-65 -3q-54 0 -111.5 26t-105.5 80.5t-78.5 138.5t-30.5 201q0 114 25.5 200.5t71 145t108.5 88.5t139 30q91 0 175.5 -22t147.5 -53v-99q-29 11 -66.5 23.5t-80 23t-88 17.5t-88.5 7q-51 0 -93.5 -24t-72.5 -70t-47 -113.5
t-17 -153.5q0 -87 19 -151.5t49.5 -107t68.5 -63.5t75 -21q5 0 25 1t49 3.5t64 5t71 6t70 7t61 7.5z" />
    <glyph glyph-name="d" unicode="d" horiz-adv-x="884" 
d="M416 900q71 0 137 -13t118 -32v245h113v-1100h-113v26q-46 -12 -81 -19.5t-63 -11t-50 -4.5t-41 -1q-36 0 -76.5 11t-81 34t-78 58.5t-66 84.5t-45.5 111.5t-17 140.5q0 114 25 202t70.5 147.5t108.5 90t140 30.5zM436 95q7 0 27 1t51 4.5t70.5 11t86.5 20.5v602
q-18 11 -46 22t-61.5 20t-71.5 15t-76 6q-51 0 -93.5 -25t-73 -72.5t-47 -115.5t-16.5 -154q0 -87 24.5 -150.5t62 -104.5t81.5 -60.5t82 -19.5z" />
    <glyph glyph-name="e" unicode="e" horiz-adv-x="806" 
d="M184 358q13 -134 74.5 -199.5t153.5 -65.5q43 0 90 8.5t91 22t81.5 29.5t61.5 31v-119q-32 -15 -70 -28.5t-79.5 -24t-86 -16.5t-88.5 -6q-77 0 -139.5 25.5t-107.5 79t-69.5 137t-24.5 199.5q0 114 25 201.5t70 147t108 90t139 30.5q57 0 104 -4t86 -12.5t71.5 -22.5
t61.5 -34v-340q0 -36 -12.5 -61t-33 -40t-46 -21.5t-51.5 -6.5h-409zM593 462q14 0 22 8.5t8 21.5v272q-30 16 -83 24.5t-127 8.5q-63 0 -105.5 -31.5t-68.5 -80t-39 -108t-16 -115.5h409z" />
    <glyph glyph-name="f" unicode="f" horiz-adv-x="571" 
d="M537 1076q-46 0 -85 -15t-69 -40.5t-49.5 -59.5t-25.5 -71h144v-104h-144v-786h-113v786h-147v104h147q4 65 26.5 118.5t64.5 91.5t104.5 59t146.5 21v-104z" />
    <glyph glyph-name="g" unicode="g" horiz-adv-x="882" 
d="M782 890v-888q0 -151 -72.5 -226.5t-236.5 -75.5q-58 0 -106.5 9t-90.5 28.5t-79 50.5t-72 75l73 76q30 -38 61 -64t64 -41.5t70 -22t80 -6.5q47 0 83.5 15t61.5 42.5t38 66.5t13 86v21q-52 -19 -117 -32.5t-137 -13.5q-76 0 -139.5 30t-109 88.5t-70.5 145.5t-25 202
q0 116 36.5 200t91.5 138t118.5 80t117.5 26q20 0 42 -1t49.5 -4.5t62 -10.5t80.5 -19v25h113zM184 456q0 -87 17 -154.5t47.5 -114t73 -70.5t93.5 -24q37 0 74 6t71 15t62 20t47 22v605q-47 12 -86.5 19t-70 11t-50.5 5t-27 1q-38 0 -82 -20.5t-81.5 -63t-62.5 -106.5
t-25 -151z" />
    <glyph glyph-name="h" unicode="h" horiz-adv-x="842" 
d="M419 900q159 0 241 -71.5t82 -233.5v-595h-113v596q0 106 -52 153.5t-158 47.5t-156 -47.5t-50 -153.5v-596h-113v1100h113v-251q39 27 89 39t117 12z" />
    <glyph glyph-name="i" unicode="i" horiz-adv-x="353" 
d="M233 890v-890h-113v890h113zM100 1014q0 32 21 54t53 22q31 0 53.5 -22t22.5 -54q0 -31 -22.5 -52.5t-53.5 -21.5q-32 0 -53 21.5t-21 52.5z" />
    <glyph glyph-name="j" unicode="j" horiz-adv-x="486" 
d="M386 889v-877q0 -151 -81 -227t-262 -76v105q112 0 171 52.5t59 146.5v876h113zM254 1014q0 32 21.5 54t52.5 22q32 0 54 -22t22 -54q0 -31 -22 -52.5t-54 -21.5q-31 0 -52.5 21.5t-21.5 52.5z" />
    <glyph glyph-name="k" unicode="k" horiz-adv-x="849" 
d="M756 719q0 -90 -29 -152t-81 -99q54 -36 82 -99t28 -155v-214h-113v214q0 105 -51.5 153t-157.5 48h-221v-415h-113v1100h113v-581h221q99 0 154 46t55 154v171h113v-171v0z" />
    <glyph glyph-name="l" unicode="l" horiz-adv-x="353" 
d="M120 1100h113v-1100h-113v1100z" />
    <glyph glyph-name="m" unicode="m" horiz-adv-x="1081" 
d="M725 900q58 0 105.5 -25t81 -72t51.5 -115.5t18 -155.5v-532h-113v533q0 59 -9.5 108t-27.5 83.5t-45 53.5t-61 19q-23 0 -43 -8.5t-37.5 -22.5t-31.5 -32t-26 -37q4 -26 5.5 -57.5t1.5 -67.5v-572h-113v572q0 109 -29.5 167t-93.5 58q-34 0 -61 -19t-45.5 -53.5
t-28.5 -83.5t-10 -108v-533h-113v890h113v-40q60 50 145 50q58 0 107 -21t80 -72q32 39 77.5 66t102.5 27z" />
    <glyph glyph-name="n" unicode="n" horiz-adv-x="842" 
d="M419 900q159 0 241 -71.5t82 -233.5v-595h-113v596q0 106 -51.5 153.5t-157.5 47.5t-156.5 -47.5t-50.5 -153.5v-596h-113v890h113v-40q38 25 88.5 37.5t117.5 12.5z" />
    <glyph glyph-name="o" unicode="o" horiz-adv-x="910" 
d="M458 900q85 0 155.5 -29t120 -87t77 -144.5t27.5 -201.5q0 -82 -17.5 -162.5t-61 -144t-116.5 -102.5t-184 -39q-86 0 -157.5 27t-122.5 82.5t-79 140t-28 198.5q0 115 28 201.5t79 144.5t122 87t157 29zM460 93q59 0 107.5 21.5t83.5 65t54.5 108t19.5 150.5
q0 87 -19.5 154t-55 112.5t-84.5 69t-108 23.5q-60 0 -110 -23.5t-86.5 -69t-56.5 -112.5t-20 -154q0 -60 13 -121t45 -110.5t84.5 -81t132.5 -32.5z" />
    <glyph glyph-name="p" unicode="p" horiz-adv-x="882" 
d="M448 900q54 0 117 -26t118 -80.5t91.5 -138.5t36.5 -200q0 -115 -25 -202t-70 -145.5t-108.5 -88t-140.5 -29.5q-73 0 -137.5 13t-116.5 32v-332h-113v1187h113v-27q46 12 81 19.5t62.5 11t49.5 5t42 1.5zM467 95q51 0 93.5 24t73 69.5t47.5 112.5t17 154t-25 151.5
t-62.5 107t-81 63t-81.5 20.5q-8 0 -28 -1t-50.5 -5t-70 -11.5t-86.5 -20.5v-601q19 -11 48 -22t63 -20t71 -15t72 -6z" />
    <glyph glyph-name="q" unicode="q" horiz-adv-x="882" 
d="M434 900q20 0 42 -1.5t49.5 -5t62.5 -11t81 -19.5v27h113v-1187h-113v332q-52 -19 -116.5 -32t-137.5 -13q-77 0 -140.5 29.5t-108.5 88t-70 145.5t-25 202q0 116 36.5 200t91.5 138.5t118 80.5t117 26zM415 95q35 0 72 6t71 15t62.5 20t48.5 22v601q-47 13 -86.5 20.5
t-70 11.5t-51 5t-27.5 1q-38 0 -81.5 -20.5t-81 -63t-62.5 -107t-25 -151.5t17 -154t47.5 -112.5t73 -69.5t93.5 -24z" />
    <glyph glyph-name="r" unicode="r" horiz-adv-x="503" 
d="M213 836q40 25 97 44.5t132 19.5v-104q-53 0 -95.5 -14.5t-72 -36.5t-45.5 -46.5t-16 -43.5v-655h-113v890h113v-54z" />
    <glyph glyph-name="s" unicode="s" horiz-adv-x="796" 
d="M170 662q0 -44 23.5 -71t61.5 -44.5t87 -28.5t100.5 -22.5t100.5 -27.5t87 -42.5t61.5 -67t23.5 -102.5q0 -127 -73 -196.5t-203 -69.5q-42 0 -93 4t-103 21.5t-102 53.5t-90 101l89 52q26 -37 61.5 -61.5t75 -39t81.5 -20.5t81 -6q76 0 120 41.5t44 119.5q0 45 -23.5 73
t-62 46t-87.5 29t-100 22.5t-100 26.5t-87.5 41t-62 66.5t-23.5 101.5q0 56 25 99.5t68 73t100.5 44.5t123.5 15q54 0 103 -15t91 -38t77 -50.5t62 -52.5l-61 -81q-43 37 -90 66q-40 25 -88 46t-94 21q-43 0 -80 -9t-64.5 -25.5t-43.5 -40t-16 -53.5z" />
    <glyph glyph-name="t" unicode="t" horiz-adv-x="553" 
d="M220 797h-146v93h146v210h113v-210h146v-93h-146v-797h-113v797z" />
    <glyph glyph-name="u" unicode="u" horiz-adv-x="841" 
d="M741 890v-594q0 -81 -20.5 -139t-60.5 -95t-100.5 -54.5t-139.5 -17.5q-166 0 -243 77t-77 229v594h113v-596q0 -106 50.5 -153.5t157.5 -47.5q106 0 157 47.5t51 153.5v596h112z" />
    <glyph glyph-name="v" unicode="v" horiz-adv-x="806" 
d="M768 890q-34 -94 -73.5 -204t-80 -223t-80.5 -223.5t-74 -204.5q-8 -23 -23.5 -34t-32.5 -11q-19 0 -34.5 11t-23.5 34q-35 94 -74.5 204.5t-80 223.5t-80 223t-73.5 204h121l245 -733l243 733h121z" />
    <glyph glyph-name="w" unicode="w" horiz-adv-x="1033" 
d="M934 890v-551q0 -83 -17.5 -148t-49.5 -109.5t-77 -68t-100 -23.5q-51 0 -97.5 23t-77.5 64q-31 -42 -72 -64.5t-100 -22.5q-55 0 -100 23.5t-77 68t-49.5 109.5t-17.5 148v551h113v-551q0 -55 8.5 -100.5t25.5 -77.5t41 -50t56 -18q21 0 39.5 7.5t35 20t30 29t24.5 33.5
q-9 52 -9 117v561h112v-561q0 -100 27.5 -153.5t87.5 -53.5q31 0 55.5 18t41.5 50t25.5 77.5t8.5 100.5v551h113z" />
    <glyph glyph-name="x" unicode="x" horiz-adv-x="860" 
d="M770 705q0 -90 -30.5 -152.5t-81.5 -98.5q56 -36 84 -98t28 -156v-200h-113v200q0 105 -52 152.5t-158 47.5h-35q-106 0 -158 -47.5t-52 -152.5v-200h-113v200q0 91 28.5 153t82.5 99q-58 35 -84.5 96t-26.5 157v185h113v-185q0 -108 55 -154.5t155 -46.5h35
q100 0 155 46.5t55 154.5v185h113v-185v0z" />
    <glyph glyph-name="y" unicode="y" horiz-adv-x="897" 
d="M797 889v-887q0 -151 -72.5 -226.5t-235.5 -75.5q-58 0 -106.5 9t-90.5 28.5t-79.5 50.5t-72.5 75l74 76q30 -38 61 -64t64 -41.5t70 -22t80 -6.5q95 0 145.5 51t50.5 146v34q-52 -19 -117.5 -32.5t-137.5 -13.5q-76 0 -139 29t-108.5 86.5t-70.5 143.5t-25 201v439h112
v-439q0 -86 17 -152.5t47.5 -111.5t73 -68t93.5 -23q37 0 74.5 6t71 15t62 20.5t47.5 22.5v730h112z" />
    <glyph glyph-name="z" unicode="z" horiz-adv-x="798" 
d="M169 177q0 -45 17 -59t48 -14h507v-104h-507q-31 0 -62.5 5.5t-57 24t-41.5 53.5t-16 94q0 68 24.5 113.5t64.5 76.5t91.5 51t105 37.5t105 36.5t91.5 46.5t64.5 68.5t24.5 103q0 26 -6.5 41.5t-18.5 23.5t-30 10t-41 2h-475v103h475q32 0 69 -3t68 -20t51.5 -53.5
t20.5 -103.5q0 -79 -29 -132t-75.5 -89t-105.5 -60t-118 -46q-47 -18 -91 -36t-78 -41t-54.5 -54.5t-20.5 -74.5z" />
    <glyph glyph-name="braceleft" unicode="{" horiz-adv-x="413" 
d="M263 513q0 -23 -13.5 -40.5t-22.5 -30.5q9 -13 22.5 -31t13.5 -41v-350q0 -12 8 -19.5t22 -7.5h68v-93h-68q-27 0 -52.5 5t-45.5 18t-32.5 36.5t-12.5 60.5v347q0 12 -8 19.5t-21 7.5h-69v95h69q13 0 21 7t8 19v466q0 37 12.5 60t32.5 36t45.5 18t52.5 5h68v-83h-68
q-14 0 -22 -7.5t-8 -20.5v-476v0z" />
    <glyph glyph-name="bar" unicode="|" horiz-adv-x="313" 
d="M213 -100h-113v1200h113v-1200z" />
    <glyph glyph-name="braceright" unicode="}" horiz-adv-x="413" 
d="M150 513v472q0 13 -8 20.5t-22 7.5h-68v87h44q36 0 66.5 -5t53 -18t35 -36t12.5 -60v-466q0 -12 8 -19t21 -7h69v-95h-69q-13 0 -21 -7.5t-8 -19.5v-347q0 -37 -12.5 -60.5t-32.5 -36.5t-45.5 -18t-52.5 -5h-68v93h68q14 0 22 7.5t8 19.5v350q0 23 13.5 41t22.5 31
q-9 13 -22.5 30.5t-13.5 40.5z" />
    <glyph glyph-name="asciitilde" unicode="~" horiz-adv-x="787" 
d="M58 382q33 31 75 57q36 22 87 40t115 18q24 0 45.5 -6t42.5 -13.5t42 -13.5t44 -6q18 0 35.5 5.5t38.5 16.5t46.5 27.5t59.5 39.5l41 -74q-29 -20 -57.5 -38.5t-56 -33t-54.5 -23.5t-53 -9q-24 0 -45.5 6t-42.5 13.5t-42.5 14t-43.5 6.5q-43 0 -79.5 -9.5t-65.5 -23
t-48.5 -28.5t-28.5 -25z" />
    <glyph glyph-name="thothannobasethai" horiz-adv-x="786" 
d="M752 892q-18 -24 -34 -40t-31.5 -26t-30 -15.5t-29.5 -8.5q38 -46 64.5 -129t26.5 -204q0 -105 -21 -187.5t-59.5 -141.5t-92.5 -94t-120 -44q-11 -2 -34 -2h-48v312q0 14 -9 22t-23 8h-100v104h100q26 0 51.5 -6.5t46 -21.5t33 -39.5t12.5 -60.5v-203q73 28 112 119.5
t39 234.5q0 86 -16 148t-46 102t-72 59t-93 19q-33 0 -71.5 -3t-79.5 -12.5t-85 -26.5t-88 -45v116q63 31 148 52.5t176 21.5q38 0 76.5 -4.5t81.5 -4.5q35 0 70 15.5t73 59.5l73 -74v0z" />
    <glyph glyph-name="thothannobasethai" unicode="&#xf700;" horiz-adv-x="786" 
d="M752 892q-18 -24 -34 -40t-31.5 -26t-30 -15.5t-29.5 -8.5q38 -46 64.5 -129t26.5 -204q0 -105 -21 -187.5t-59.5 -141.5t-92.5 -94t-120 -44q-11 -2 -34 -2h-48v312q0 14 -9 22t-23 8h-100v104h100q26 0 51.5 -6.5t46 -21.5t33 -39.5t12.5 -60.5v-203q73 28 112 119.5
t39 234.5q0 86 -16 148t-46 102t-72 59t-93 19q-33 0 -71.5 -3t-79.5 -12.5t-85 -26.5t-88 -45v116q63 31 148 52.5t176 21.5q38 0 76.5 -4.5t81.5 -4.5q35 0 70 15.5t73 59.5l73 -74v0z" />
    <glyph glyph-name="thothannobasethai" unicode="&#x20ac;" horiz-adv-x="786" 
d="M752 892q-18 -24 -34 -40t-31.5 -26t-30 -15.5t-29.5 -8.5q38 -46 64.5 -129t26.5 -204q0 -105 -21 -187.5t-59.5 -141.5t-92.5 -94t-120 -44q-11 -2 -34 -2h-48v312q0 14 -9 22t-23 8h-100v104h100q26 0 51.5 -6.5t46 -21.5t33 -39.5t12.5 -60.5v-203q73 28 112 119.5
t39 234.5q0 86 -16 148t-46 102t-72 59t-93 19q-33 0 -71.5 -3t-79.5 -12.5t-85 -26.5t-88 -45v116q63 31 148 52.5t176 21.5q38 0 76.5 -4.5t81.5 -4.5q35 0 70 15.5t73 59.5l73 -74v0z" />
    <glyph glyph-name="saraileftthai" 
d="M-320 999h-504v107h504v-107z" />
    <glyph glyph-name="saraileftthai" unicode="&#xf701;" 
d="M-320 999h-504v107h504v-107z" />
    <glyph glyph-name="saraiileftthai" 
d="M-320 1190v-79q0 -40 -13 -62t-34 -33t-47.5 -13.5t-53.5 -2.5h-369v107h369q31 0 31 4v79h117z" />
    <glyph glyph-name="saraiileftthai" unicode="&#xf702;" 
d="M-320 1190v-79q0 -40 -13 -62t-34 -33t-47.5 -13.5t-53.5 -2.5h-369v107h369q31 0 31 4v79h117z" />
    <glyph glyph-name="saraiileftthai" unicode="&#x201a;" 
d="M-320 1190v-79q0 -40 -13 -62t-34 -33t-47.5 -13.5t-53.5 -2.5h-369v107h369q31 0 31 4v79h117z" />
    <glyph glyph-name="saraueleftthai" 
d="M-435 1230q24 0 44.5 -9t36.5 -25t25 -36.5t9 -44.5t-9 -45t-25 -36.5t-36.5 -24.5t-44.5 -9h-395v103h280q0 28 9 51.5t24.5 40t36.5 26t45 9.5zM-436 1075q17 0 28.5 11.5t11.5 28.5t-11.5 28.5t-28.5 11.5t-28.5 -11.5t-11.5 -28.5t11.5 -28.5t28.5 -11.5z" />
    <glyph glyph-name="saraueleftthai" unicode="&#xf703;" 
d="M-435 1230q24 0 44.5 -9t36.5 -25t25 -36.5t9 -44.5t-9 -45t-25 -36.5t-36.5 -24.5t-44.5 -9h-395v103h280q0 28 9 51.5t24.5 40t36.5 26t45 9.5zM-436 1075q17 0 28.5 11.5t11.5 28.5t-11.5 28.5t-28.5 11.5t-28.5 -11.5t-11.5 -28.5t11.5 -28.5t28.5 -11.5z" />
    <glyph glyph-name="saraueleftthai" unicode="&#x192;" 
d="M-435 1230q24 0 44.5 -9t36.5 -25t25 -36.5t9 -44.5t-9 -45t-25 -36.5t-36.5 -24.5t-44.5 -9h-395v103h280q0 28 9 51.5t24.5 40t36.5 26t45 9.5zM-436 1075q17 0 28.5 11.5t11.5 28.5t-11.5 28.5t-28.5 11.5t-28.5 -11.5t-11.5 -28.5t11.5 -28.5t28.5 -11.5z" />
    <glyph glyph-name="saraueeleftthai" 
d="M-320 1186v-78q0 -39 -12.5 -60.5t-33 -32t-46 -13t-51.5 -2.5h-359v103h188v83h114v-81q4 0 18 0.5t29.5 1.5t27.5 2l12 1v76h113z" />
    <glyph glyph-name="saraueeleftthai" unicode="&#xf704;" 
d="M-320 1186v-78q0 -39 -12.5 -60.5t-33 -32t-46 -13t-51.5 -2.5h-359v103h188v83h114v-81q4 0 18 0.5t29.5 1.5t27.5 2l12 1v76h113z" />
    <glyph glyph-name="saraueeleftthai" unicode="&#x201e;" 
d="M-320 1186v-78q0 -39 -12.5 -60.5t-33 -32t-46 -13t-51.5 -2.5h-359v103h188v83h114v-81q4 0 18 0.5t29.5 1.5t27.5 2l12 1v76h113z" />
    <glyph glyph-name="ellipsis" unicode="&#x85;" 
 />
    <glyph glyph-name="ellipsis" unicode="&#x2026;" 
 />
    <glyph glyph-name="maieklowleftthai" 
d="M-432 1000v191h112v-191h-112z" />
    <glyph glyph-name="maieklowleftthai" unicode="&#xf705;" 
d="M-432 1000v191h112v-191h-112z" />
    <glyph glyph-name="maieklowleftthai" unicode="&#x2020;" 
d="M-432 1000v191h112v-191h-112z" />
    <glyph glyph-name="maitholowleftthai" 
d="M-633 1211q62 0 94 -28.5t37 -82.5h213v-100h-324v80q0 13 -5 25t-15 12h-68v94h68v0z" />
    <glyph glyph-name="maitholowleftthai" unicode="&#xf706;" 
d="M-633 1211q62 0 94 -28.5t37 -82.5h213v-100h-324v80q0 13 -5 25t-15 12h-68v94h68v0z" />
    <glyph glyph-name="maitholowleftthai" unicode="&#x2021;" 
d="M-633 1211q62 0 94 -28.5t37 -82.5h213v-100h-324v80q0 13 -5 25t-15 12h-68v94h68v0z" />
    <glyph glyph-name="maitrilowleftthai" 
d="M-260 1093v-93h-195v188q0 3 -19 3q-22 -14 -51.5 -31.5t-52.5 -30.5l-102 62q-21 0 -21 -3v-95h85v-93h-198v188q0 39 13.5 60.5t34.5 32t48 12.5t54 2l83 -51q37 23 56 34t30 17q28 0 55.5 -2t49 -12.5t35 -32t13.5 -60.5v-95h82z" />
    <glyph glyph-name="maitrilowleftthai" unicode="&#xf707;" 
d="M-260 1093v-93h-195v188q0 3 -19 3q-22 -14 -51.5 -31.5t-52.5 -30.5l-102 62q-21 0 -21 -3v-95h85v-93h-198v188q0 39 13.5 60.5t34.5 32t48 12.5t54 2l83 -51q37 23 56 34t30 17q28 0 55.5 -2t49 -12.5t35 -32t13.5 -60.5v-95h82z" />
    <glyph glyph-name="maitrilowleftthai" unicode="&#x2c6;" 
d="M-260 1093v-93h-195v188q0 3 -19 3q-22 -14 -51.5 -31.5t-52.5 -30.5l-102 62q-21 0 -21 -3v-95h85v-93h-198v188q0 39 13.5 60.5t34.5 32t48 12.5t54 2l83 -51q37 23 56 34t30 17q28 0 55.5 -2t49 -12.5t35 -32t13.5 -60.5v-95h82z" />
    <glyph glyph-name="maichattawalowleftthai" 
d="M-278 1072h-72v-72h-107v72h-71v107h71v71h107v-71h72v-107z" />
    <glyph glyph-name="maichattawalowleftthai" unicode="&#xf708;" 
d="M-278 1072h-72v-72h-107v72h-71v107h71v71h107v-71h72v-107z" />
    <glyph glyph-name="maichattawalowleftthai" unicode="&#x2030;" 
d="M-278 1072h-72v-72h-107v72h-71v107h71v71h107v-71h72v-107z" />
    <glyph glyph-name="thanthakhatlowleftthai" 
d="M-370 1000v78q0 36 12.5 62t33 42t46.5 23.5t52 7.5h144v-104h-144q-14 0 -22 -8.5t-8 -22.5v-78h-114z" />
    <glyph glyph-name="thanthakhatlowleftthai" unicode="&#xf709;" 
d="M-370 1000v78q0 36 12.5 62t33 42t46.5 23.5t52 7.5h144v-104h-144q-14 0 -22 -8.5t-8 -22.5v-78h-114z" />
    <glyph glyph-name="thanthakhatlowleftthai" unicode="&#x160;" 
d="M-370 1000v78q0 36 12.5 62t33 42t46.5 23.5t52 7.5h144v-104h-144q-14 0 -22 -8.5t-8 -22.5v-78h-114z" />
    <glyph glyph-name="maieklowrightthai" 
d="M-212 1000v191h112v-191h-112z" />
    <glyph glyph-name="maieklowrightthai" unicode="&#xf70a;" 
d="M-212 1000v191h112v-191h-112z" />
    <glyph glyph-name="maieklowrightthai" unicode="&#x2039;" 
d="M-212 1000v191h112v-191h-112z" />
    <glyph glyph-name="maitholowrightthai" 
d="M-394 1211q62 0 94 -28.5t37 -82.5h213v-100h-324v80q0 13 -5 25t-15 12h-68v94h68v0z" />
    <glyph glyph-name="maitholowrightthai" unicode="&#xf70b;" 
d="M-394 1211q62 0 94 -28.5t37 -82.5h213v-100h-324v80q0 13 -5 25t-15 12h-68v94h68v0z" />
    <glyph glyph-name="maitholowrightthai" unicode="&#x152;" 
d="M-394 1211q62 0 94 -28.5t37 -82.5h213v-100h-324v80q0 13 -5 25t-15 12h-68v94h68v0z" />
    <glyph glyph-name="maitrilowrightthai" 
d="M-100 1093v-93h-195v188q0 3 -19 3q-22 -14 -51.5 -31.5t-52.5 -30.5l-102 62q-21 0 -21 -3v-95h85v-93h-198v188q0 39 13.5 60.5t34.5 32t48 12.5t54 2l83 -51q37 23 56 34t30 17q28 0 55.5 -2t49 -12.5t35 -32t13.5 -60.5v-95h82z" />
    <glyph glyph-name="maitrilowrightthai" unicode="&#xf70c;" 
d="M-100 1093v-93h-195v188q0 3 -19 3q-22 -14 -51.5 -31.5t-52.5 -30.5l-102 62q-21 0 -21 -3v-95h85v-93h-198v188q0 39 13.5 60.5t34.5 32t48 12.5t54 2l83 -51q37 23 56 34t30 17q28 0 55.5 -2t49 -12.5t35 -32t13.5 -60.5v-95h82z" />
    <glyph glyph-name="maichattawalowrightthai" 
d="M-28 1072h-72v-72h-107v72h-71v107h71v71h107v-71h72v-107z" />
    <glyph glyph-name="maichattawalowrightthai" unicode="&#xf70d;" 
d="M-28 1072h-72v-72h-107v72h-71v107h71v71h107v-71h72v-107z" />
    <glyph glyph-name="maichattawalowrightthai" unicode="&#x17d;" 
d="M-28 1072h-72v-72h-107v72h-71v107h71v71h107v-71h72v-107z" />
    <glyph glyph-name="thanthakhatlowrightthai" 
d="M-334 1000v78q0 36 12.5 62t33 42t46.5 23.5t52 7.5h144v-104h-144q-14 0 -22 -8.5t-8 -22.5v-78h-114z" />
    <glyph glyph-name="thanthakhatlowrightthai" unicode="&#xf70e;" 
d="M-334 1000v78q0 36 12.5 62t33 42t46.5 23.5t52 7.5h144v-104h-144q-14 0 -22 -8.5t-8 -22.5v-78h-114z" />
    <glyph glyph-name="yoyingnobasethai" horiz-adv-x="1392" 
d="M1292 890v-595q0 -162 -82 -233.5t-241 -71.5q-166 0 -243 76.5t-77 228.5v316q0 52 -13 88t-39 57.5t-65.5 31t-92.5 9.5q-36 0 -69.5 -3t-62.5 -12t-52.5 -26t-41.5 -44v-589q0 -13 8.5 -21.5t22.5 -8.5h71v-93h-70q-27 0 -53.5 4t-46.5 17t-32.5 36.5t-12.5 61.5v628
q32 49 66.5 79t75 46.5t89 22t108.5 5.5q168 0 245.5 -70.5t77.5 -224.5v-310q0 -105 51 -153.5t157 -48.5t157.5 48.5t51.5 153.5v595h113z" />
    <glyph glyph-name="yoyingnobasethai" unicode="&#xf70f;" horiz-adv-x="1392" 
d="M1292 890v-595q0 -162 -82 -233.5t-241 -71.5q-166 0 -243 76.5t-77 228.5v316q0 52 -13 88t-39 57.5t-65.5 31t-92.5 9.5q-36 0 -69.5 -3t-62.5 -12t-52.5 -26t-41.5 -44v-589q0 -13 8.5 -21.5t22.5 -8.5h71v-93h-70q-27 0 -53.5 4t-46.5 17t-32.5 36.5t-12.5 61.5v628
q32 49 66.5 79t75 46.5t89 22t108.5 5.5q168 0 245.5 -70.5t77.5 -224.5v-310q0 -105 51 -153.5t157 -48.5t157.5 48.5t51.5 153.5v595h113z" />
    <glyph glyph-name="quoteleft" horiz-adv-x="266" 
d="M57 1203h95v-71q0 -11 16.5 -19.5t40.5 -10.5v-111q-47 0 -77 12t-46.5 32t-22.5 45.5t-6 51.5v71z" />
    <glyph glyph-name="quoteleft" unicode="&#x2018;" horiz-adv-x="266" 
d="M57 1203h95v-71q0 -11 16.5 -19.5t40.5 -10.5v-111q-47 0 -77 12t-46.5 32t-22.5 45.5t-6 51.5v71z" />
    <glyph glyph-name="quoteright" horiz-adv-x="266" 
d="M209 1132q0 -26 -6 -51.5t-22.5 -45.5t-46.5 -32t-77 -12v111q24 2 40.5 10.5t16.5 19.5v71h95v-71z" />
    <glyph glyph-name="quoteright" unicode="&#x2019;" horiz-adv-x="266" 
d="M209 1132q0 -26 -6 -51.5t-22.5 -45.5t-46.5 -32t-77 -12v111q24 2 40.5 10.5t16.5 19.5v71h95v-71z" />
    <glyph glyph-name="bullet" horiz-adv-x="392" 
d="M196 335q-29 0 -54 11t-44 29.5t-30 44t-11 54.5t11.5 54.5t30.5 44.5t44 30t53 11q29 0 54.5 -11t44 -30t29.5 -44.5t11 -54.5q0 -28 -11 -53.5t-29.5 -44.5t-44 -30t-54.5 -11z" />
    <glyph glyph-name="bullet" unicode="&#x2022;" horiz-adv-x="392" 
d="M196 335q-29 0 -54 11t-44 29.5t-30 44t-11 54.5t11.5 54.5t30.5 44.5t44 30t53 11q29 0 54.5 -11t44 -30t29.5 -44.5t11 -54.5q0 -28 -11 -53.5t-29.5 -44.5t-44 -30t-54.5 -11z" />
    <glyph glyph-name="endash" horiz-adv-x="653" 
d="M653 538v-104h-654v104h654z" />
    <glyph glyph-name="endash" unicode="&#x2013;" horiz-adv-x="653" 
d="M653 538v-104h-654v104h654z" />
    <glyph glyph-name="emdash" horiz-adv-x="810" 
d="M810 536v-104h-810v104h810z" />
    <glyph glyph-name="emdash" unicode="&#x2014;" horiz-adv-x="810" 
d="M810 536v-104h-810v104h810z" />
    <glyph glyph-name="maihanakatleftthai" 
d="M-605 1218v-80q0 -14 10.5 -24.5t24.5 -10.5h250v-103h-250q-27 0 -53.5 7.5t-47.5 24t-34 43t-13 63.5v80h113z" />
    <glyph glyph-name="maihanakatleftthai" unicode="&#xf710;" 
d="M-605 1218v-80q0 -14 10.5 -24.5t24.5 -10.5h250v-103h-250q-27 0 -53.5 7.5t-47.5 24t-34 43t-13 63.5v80h113z" />
    <glyph glyph-name="maihanakatleftthai" unicode="&#x2dc;" 
d="M-605 1218v-80q0 -14 10.5 -24.5t24.5 -10.5h250v-103h-250q-27 0 -53.5 7.5t-47.5 24t-34 43t-13 63.5v80h113z" />
    <glyph glyph-name="nikhahitleftthai" 
d="M-435 1232q24 0 45 -9t36.5 -24.5t24.5 -36.5t9 -45t-9 -44.5t-24.5 -36.5t-36.5 -25t-45 -9t-44.5 9t-36.5 25t-25 36.5t-9 44.5t9 45t25 36.5t36.5 24.5t44.5 9zM-435 1077q17 0 28.5 11.5t11.5 28.5t-11.5 28.5t-28.5 11.5t-28.5 -11.5t-11.5 -28.5t11.5 -28.5
t28.5 -11.5z" />
    <glyph glyph-name="nikhahitleftthai" unicode="&#xf711;" 
d="M-435 1232q24 0 45 -9t36.5 -24.5t24.5 -36.5t9 -45t-9 -44.5t-24.5 -36.5t-36.5 -25t-45 -9t-44.5 9t-36.5 25t-25 36.5t-9 44.5t9 45t25 36.5t36.5 24.5t44.5 9zM-435 1077q17 0 28.5 11.5t11.5 28.5t-11.5 28.5t-28.5 11.5t-28.5 -11.5t-11.5 -28.5t11.5 -28.5
t28.5 -11.5z" />
    <glyph glyph-name="nikhahitleftthai" unicode="&#x2122;" 
d="M-435 1232q24 0 45 -9t36.5 -24.5t24.5 -36.5t9 -45t-9 -44.5t-24.5 -36.5t-36.5 -25t-45 -9t-44.5 9t-36.5 25t-25 36.5t-9 44.5t9 45t25 36.5t36.5 24.5t44.5 9zM-435 1077q17 0 28.5 11.5t11.5 28.5t-11.5 28.5t-28.5 11.5t-28.5 -11.5t-11.5 -28.5t11.5 -28.5
t28.5 -11.5z" />
    <glyph glyph-name="maitaikhuleftthai" 
d="M-260 1348v-47q0 -69 -36.5 -97.5t-119.5 -28.5h-148q-14 0 -22.5 -4.5t-8.5 -7.5l-6 -54l94 31l103 -35h84v-105h-103l-84 53l-85 -53h-115v171q0 39 12.5 60.5t32.5 31.5t46 12t52 2h171q14 0 26 6t12 18v47h95z" />
    <glyph glyph-name="maitaikhuleftthai" unicode="&#xf712;" 
d="M-260 1348v-47q0 -69 -36.5 -97.5t-119.5 -28.5h-148q-14 0 -22.5 -4.5t-8.5 -7.5l-6 -54l94 31l103 -35h84v-105h-103l-84 53l-85 -53h-115v171q0 39 12.5 60.5t32.5 31.5t46 12t52 2h171q14 0 26 6t12 18v47h95z" />
    <glyph glyph-name="maitaikhuleftthai" unicode="&#x161;" 
d="M-260 1348v-47q0 -69 -36.5 -97.5t-119.5 -28.5h-148q-14 0 -22.5 -4.5t-8.5 -7.5l-6 -54l94 31l103 -35h84v-105h-103l-84 53l-85 -53h-115v171q0 39 12.5 60.5t32.5 31.5t46 12t52 2h171q14 0 26 6t12 18v47h95z" />
    <glyph glyph-name="maiekupperleftthai" 
d="M-432 1300v191h112v-191h-112z" />
    <glyph glyph-name="maiekupperleftthai" unicode="&#xf713;" 
d="M-432 1300v191h112v-191h-112z" />
    <glyph glyph-name="maiekupperleftthai" unicode="&#x203a;" 
d="M-432 1300v191h112v-191h-112z" />
    <glyph glyph-name="maithoupperleftthai" 
d="M-634 1511q62 0 94 -28.5t37 -82.5h213v-100h-324v80q0 13 -5 25t-15 12h-68v94h68v0z" />
    <glyph glyph-name="maithoupperleftthai" unicode="&#xf714;" 
d="M-634 1511q62 0 94 -28.5t37 -82.5h213v-100h-324v80q0 13 -5 25t-15 12h-68v94h68v0z" />
    <glyph glyph-name="maithoupperleftthai" unicode="&#x153;" 
d="M-634 1511q62 0 94 -28.5t37 -82.5h213v-100h-324v80q0 13 -5 25t-15 12h-68v94h68v0z" />
    <glyph glyph-name="maitriupperleftthai" 
d="M-260 1393v-93h-195v188q0 3 -19 3q-22 -14 -51.5 -31.5t-52.5 -30.5l-102 62q-21 0 -21 -3v-95h85v-93h-198v188q0 39 13.5 60.5t34.5 32t48 12.5t54 2l83 -51q37 23 56 34t30 17q28 0 55.5 -2t49 -12.5t35 -32t13.5 -60.5v-95h82z" />
    <glyph glyph-name="maitriupperleftthai" unicode="&#xf715;" 
d="M-260 1393v-93h-195v188q0 3 -19 3q-22 -14 -51.5 -31.5t-52.5 -30.5l-102 62q-21 0 -21 -3v-95h85v-93h-198v188q0 39 13.5 60.5t34.5 32t48 12.5t54 2l83 -51q37 23 56 34t30 17q28 0 55.5 -2t49 -12.5t35 -32t13.5 -60.5v-95h82z" />
    <glyph glyph-name="maichattawaupperleftthai" 
d="M-248 1372h-72v-72h-107v72h-71v107h71v71h107v-71h72v-107z" />
    <glyph glyph-name="maichattawaupperleftthai" unicode="&#xf716;" 
d="M-248 1372h-72v-72h-107v72h-71v107h71v71h107v-71h72v-107z" />
    <glyph glyph-name="maichattawaupperleftthai" unicode="&#x17e;" 
d="M-248 1372h-72v-72h-107v72h-71v107h71v71h107v-71h72v-107z" />
    <glyph glyph-name="thanthakhatupperleftthai" 
d="M-370 1300v78q0 36 12.5 62t33 42t46.5 23.5t52 7.5h144v-104h-144q-14 0 -22 -8.5t-8 -22.5v-78h-114z" />
    <glyph glyph-name="thanthakhatupperleftthai" unicode="&#xf717;" 
d="M-370 1300v78q0 36 12.5 62t33 42t46.5 23.5t52 7.5h144v-104h-144q-14 0 -22 -8.5t-8 -22.5v-78h-114z" />
    <glyph glyph-name="thanthakhatupperleftthai" unicode="&#x178;" 
d="M-370 1300v78q0 36 12.5 62t33 42t46.5 23.5t52 7.5h144v-104h-144q-14 0 -22 -8.5t-8 -22.5v-78h-114z" />
    <glyph glyph-name="uni00A0" unicode="&#xa0;" horiz-adv-x="925" 
 />
    <glyph glyph-name="uni00A0" unicode="&#xe00;" horiz-adv-x="925" 
 />
    <glyph glyph-name="kokaithai" unicode="&#xa1;" horiz-adv-x="854" 
d="M642 596q0 105 -51 153t-157 48q-35 0 -67.5 -3t-61 -12t-52 -26t-40.5 -44v-712h-113v750q32 48 66 77.5t74 45.5t87 21.5t106 5.5q166 0 243.5 -75.5t77.5 -228.5v-596h-112v596v0z" />
    <glyph glyph-name="kokaithai" unicode="&#xe01;" horiz-adv-x="854" 
d="M642 596q0 105 -51 153t-157 48q-35 0 -67.5 -3t-61 -12t-52 -26t-40.5 -44v-712h-113v750q32 48 66 77.5t74 45.5t87 21.5t106 5.5q166 0 243.5 -75.5t77.5 -228.5v-596h-112v596v0z" />
    <glyph glyph-name="khokhaithai" unicode="&#xa2;" horiz-adv-x="785" 
d="M685 890v-597q0 -76 -15.5 -132.5t-50 -94.5t-90.5 -57t-137 -19t-137 19t-90.5 56.5t-49.5 94t-15 131.5v221q0 25 4.5 59t18 69.5t39.5 68.5t70 54q-5 13 -13.5 22.5t-22.5 9.5h-96v95h96q34 0 62.5 -9.5t48 -31t30.5 -57.5t11 -89q-51 -26 -78 -49.5t-40 -47
t-15 -46.5t-2 -48v-221q0 -51 9.5 -88.5t30.5 -61.5t55 -36t84 -12t84.5 12t55.5 36.5t30.5 62.5t9.5 89v597h113z" />
    <glyph glyph-name="khokhaithai" unicode="&#xe02;" horiz-adv-x="785" 
d="M685 890v-597q0 -76 -15.5 -132.5t-50 -94.5t-90.5 -57t-137 -19t-137 19t-90.5 56.5t-49.5 94t-15 131.5v221q0 25 4.5 59t18 69.5t39.5 68.5t70 54q-5 13 -13.5 22.5t-22.5 9.5h-96v95h96q34 0 62.5 -9.5t48 -31t30.5 -57.5t11 -89q-51 -26 -78 -49.5t-40 -47
t-15 -46.5t-2 -48v-221q0 -51 9.5 -88.5t30.5 -61.5t55 -36t84 -12t84.5 12t55.5 36.5t30.5 62.5t9.5 89v597h113z" />
    <glyph glyph-name="khokhuatthai" unicode="&#xa3;" horiz-adv-x="833" 
d="M733 890v-597q0 -76 -15 -132.5t-49 -94.5t-89.5 -57t-136.5 -19t-137 19t-90.5 56.5t-50 94t-15.5 131.5v209q0 25 7.5 54t25.5 58t47.5 56.5t73.5 48.5l-30 53l-18 -15q-18 -16 -42 -36t-41 -33l-144 121l72 71l75 -64l95 76q57 -10 92.5 -59.5t35.5 -137.5
q-51 -25 -78.5 -49t-40 -47.5t-15 -47.5t-2.5 -49v-209q0 -51 9.5 -88t30.5 -61t55.5 -35.5t84.5 -11.5q49 0 83 11.5t55 36t30 62t9 88.5v597h113z" />
    <glyph glyph-name="khokhuatthai" unicode="&#xe03;" horiz-adv-x="833" 
d="M733 890v-597q0 -76 -15 -132.5t-49 -94.5t-89.5 -57t-136.5 -19t-137 19t-90.5 56.5t-50 94t-15.5 131.5v209q0 25 7.5 54t25.5 58t47.5 56.5t73.5 48.5l-30 53l-18 -15q-18 -16 -42 -36t-41 -33l-144 121l72 71l75 -64l95 76q57 -10 92.5 -59.5t35.5 -137.5
q-51 -25 -78.5 -49t-40 -47.5t-15 -47.5t-2.5 -49v-209q0 -51 9.5 -88t30.5 -61t55.5 -35.5t84.5 -11.5q49 0 83 11.5t55 36t30 62t9 88.5v597h113z" />
    <glyph glyph-name="khokhwaithai" unicode="&#xa4;" horiz-adv-x="889" 
d="M463 797q-43 0 -84 -15t-74.5 -45.5t-58 -76t-33.5 -105.5v-24q8 1 16 1.5t15 0.5h180v-103h-180q-13 0 -22 -8t-9 -20v-402h-113v559q7 95 39.5 160t82 105.5t111.5 58t130 17.5q49 0 99 -13.5t93.5 -35t78.5 -48t55 -52.5v-750h-113v708q-17 15 -41 31t-52.5 28.5
t-59 20.5t-60.5 8z" />
    <glyph glyph-name="khokhwaithai" unicode="&#xe04;" horiz-adv-x="889" 
d="M463 797q-43 0 -84 -15t-74.5 -45.5t-58 -76t-33.5 -105.5v-24q8 1 16 1.5t15 0.5h180v-103h-180q-13 0 -22 -8t-9 -20v-402h-113v559q7 95 39.5 160t82 105.5t111.5 58t130 17.5q49 0 99 -13.5t93.5 -35t78.5 -48t55 -52.5v-750h-113v708q-17 15 -41 31t-52.5 28.5
t-59 20.5t-60.5 8z" />
    <glyph glyph-name="khokhonthai" unicode="&#xa5;" horiz-adv-x="890" 
d="M408 787q-41 -2 -76.5 -17t-61.5 -40.5t-41.5 -60t-15.5 -74.5v-70q16 3 32 3h180v-105h-180q-14 0 -23 -8t-9 -20v-395h-113v595q0 64 27 120t73 97t106.5 64.5t127.5 23.5l90 -74l96 74q28 -8 54.5 -22t48.5 -29.5t39.5 -31t27.5 -25.5v-792h-113v768q0 2 -7 4.5
t-36 14.5q-26 -26 -54 -51.5t-57 -49.5l-115 101v0z" />
    <glyph glyph-name="khokhonthai" unicode="&#xe05;" horiz-adv-x="890" 
d="M408 787q-41 -2 -76.5 -17t-61.5 -40.5t-41.5 -60t-15.5 -74.5v-70q16 3 32 3h180v-105h-180q-14 0 -23 -8t-9 -20v-395h-113v595q0 64 27 120t73 97t106.5 64.5t127.5 23.5l90 -74l96 74q28 -8 54.5 -22t48.5 -29.5t39.5 -31t27.5 -25.5v-792h-113v768q0 2 -7 4.5
t-36 14.5q-26 -26 -54 -51.5t-57 -49.5l-115 101v0z" />
    <glyph glyph-name="khorakhangthai" unicode="&#xa6;" horiz-adv-x="1029" 
d="M930 890v-570q0 -84 -25 -146.5t-68 -103t-101 -60.5t-123 -20q-76 0 -131 22.5t-97 63.5q-30 -76 -127 -76h-68v93h68q11 0 16.5 12t5.5 25v620q0 11 -7 23l-101 -88l-149 121l71 71l76 -63q22 18 48 38.5t47 37.5q29 -5 53 -15.5t40.5 -28.5t25.5 -46t9 -67v-528
q35 -48 91.5 -80t128.5 -32q45 0 82.5 14.5t64.5 42.5t42 70t15 98v572h113z" />
    <glyph glyph-name="khorakhangthai" unicode="&#xe06;" horiz-adv-x="1029" 
d="M930 890v-570q0 -84 -25 -146.5t-68 -103t-101 -60.5t-123 -20q-76 0 -131 22.5t-97 63.5q-30 -76 -127 -76h-68v93h68q11 0 16.5 12t5.5 25v620q0 11 -7 23l-101 -88l-149 121l71 71l76 -63q22 18 48 38.5t47 37.5q29 -5 53 -15.5t40.5 -28.5t25.5 -46t9 -67v-528
q35 -48 91.5 -80t128.5 -32q45 0 82.5 14.5t64.5 42.5t42 70t15 98v572h113z" />
    <glyph glyph-name="ngonguthai" unicode="&#xa7;" horiz-adv-x="718" 
d="M486 890q67 0 99.5 -33.5t32.5 -98.5v-463q0 -81 -22.5 -139t-69 -94.5t-118.5 -54t-171 -17.5l-218 578h125l176 -472q89 7 137 54.5t48 144.5v463q0 13 -5 24.5t-14 11.5h-68v96h68v0z" />
    <glyph glyph-name="ngonguthai" unicode="&#xe07;" horiz-adv-x="718" 
d="M486 890q67 0 99.5 -33.5t32.5 -98.5v-463q0 -81 -22.5 -139t-69 -94.5t-118.5 -54t-171 -17.5l-218 578h125l176 -472q89 7 137 54.5t48 144.5v463q0 13 -5 24.5t-14 11.5h-68v96h68v0z" />
    <glyph glyph-name="chochanthai" unicode="&#xa8;" horiz-adv-x="784" 
d="M715 464q0 -105 -21 -186.5t-60 -139.5t-93 -92t-120 -43q-23 -3 -83 -3v313q0 14 -8 22t-22 8h-101v103h101q26 0 51.5 -6.5t46 -21.5t33 -39.5t12.5 -60.5v-205q73 28 112 118t39 233q0 86 -16.5 149t-46.5 104t-72 60.5t-93 19.5q-44 0 -90.5 -8t-90.5 -20.5
t-81.5 -27.5t-61.5 -28v113q63 31 148.5 52.5t175.5 21.5q76 0 138.5 -25t107.5 -77.5t70 -135.5t25 -198z" />
    <glyph glyph-name="chochanthai" unicode="&#xe08;" horiz-adv-x="784" 
d="M715 464q0 -105 -21 -186.5t-60 -139.5t-93 -92t-120 -43q-23 -3 -83 -3v313q0 14 -8 22t-22 8h-101v103h101q26 0 51.5 -6.5t46 -21.5t33 -39.5t12.5 -60.5v-205q73 28 112 118t39 233q0 86 -16.5 149t-46.5 104t-72 60.5t-93 19.5q-44 0 -90.5 -8t-90.5 -20.5
t-81.5 -27.5t-61.5 -28v113q63 31 148.5 52.5t175.5 21.5q76 0 138.5 -25t107.5 -77.5t70 -135.5t25 -198z" />
    <glyph glyph-name="chochingthai" unicode="&#xa9;" horiz-adv-x="906" 
d="M867 95v-95h-67q-97 0 -125 77q-42 -41 -98.5 -64t-131.5 -23q-66 0 -123.5 20t-100 61t-67.5 103.5t-25 146.5v111q0 12 -5.5 24.5t-15.5 12.5h-68v94h68q132 0 132 -131v-111q0 -56 15 -98t42 -70.5t65 -43t83 -14.5q70 0 127.5 32t91.5 80v248q0 86 -16.5 150
t-46.5 107t-72 64t-93 21q-43 0 -90 -7t-91 -19t-81.5 -27t-61.5 -31v113q32 15 70 28.5t79.5 23.5t86 16t88.5 6q76 0 139 -26.5t107.5 -81t69 -138.5t24.5 -199v-322q0 -14 6.5 -26t17.5 -12h67z" />
    <glyph glyph-name="chochingthai" unicode="&#xe09;" horiz-adv-x="906" 
d="M867 95v-95h-67q-97 0 -125 77q-42 -41 -98.5 -64t-131.5 -23q-66 0 -123.5 20t-100 61t-67.5 103.5t-25 146.5v111q0 12 -5.5 24.5t-15.5 12.5h-68v94h68q132 0 132 -131v-111q0 -56 15 -98t42 -70.5t65 -43t83 -14.5q70 0 127.5 32t91.5 80v248q0 86 -16.5 150
t-46.5 107t-72 64t-93 21q-43 0 -90 -7t-91 -19t-81.5 -27t-61.5 -31v113q32 15 70 28.5t79.5 23.5t86 16t88.5 6q76 0 139 -26.5t107.5 -81t69 -138.5t24.5 -199v-322q0 -14 6.5 -26t17.5 -12h67z" />
    <glyph glyph-name="chochangthai" unicode="&#xaa;" horiz-adv-x="786" 
d="M686 919q0 -43 -1 -72.5t-5.5 -50.5t-14 -35t-27.5 -26q27 -25 36 -56.5t12 -79.5v-305q0 -76 -15.5 -133t-50 -95t-90.5 -57t-138 -19q-81 0 -137 19t-90.5 56.5t-49.5 94.5t-15 132v219q0 24 4.5 58t18.5 69.5t40 68t69 55.5q-5 11 -14.5 22t-20.5 11h-97v95h97
q34 0 62 -9.5t48 -31.5t30.5 -58t10.5 -89q-50 -26 -77.5 -49.5t-40.5 -46.5t-15 -46.5t-2 -48.5v-221q0 -51 9.5 -88.5t30.5 -61.5t55 -35.5t84 -11.5t84.5 11.5t56 36t31 62t9.5 89.5v307q0 24 -5.5 40.5t-21.5 27t-45 15t-75 4.5v103q51 0 80.5 8t44 24t18.5 40.5t4 57.5
v21h113v-21v0z" />
    <glyph glyph-name="chochangthai" unicode="&#xe0a;" horiz-adv-x="786" 
d="M686 919q0 -43 -1 -72.5t-5.5 -50.5t-14 -35t-27.5 -26q27 -25 36 -56.5t12 -79.5v-305q0 -76 -15.5 -133t-50 -95t-90.5 -57t-138 -19q-81 0 -137 19t-90.5 56.5t-49.5 94.5t-15 132v219q0 24 4.5 58t18.5 69.5t40 68t69 55.5q-5 11 -14.5 22t-20.5 11h-97v95h97
q34 0 62 -9.5t48 -31.5t30.5 -58t10.5 -89q-50 -26 -77.5 -49.5t-40.5 -46.5t-15 -46.5t-2 -48.5v-221q0 -51 9.5 -88.5t30.5 -61.5t55 -35.5t84 -11.5t84.5 11.5t56 36t31 62t9.5 89.5v307q0 24 -5.5 40.5t-21.5 27t-45 15t-75 4.5v103q51 0 80.5 8t44 24t18.5 40.5t4 57.5
v21h113v-21v0z" />
    <glyph glyph-name="sosothai" unicode="&#xab;" horiz-adv-x="826" 
d="M726 919q0 -43 -1 -72.5t-5.5 -50.5t-14 -35t-27.5 -26q27 -25 36 -56.5t12 -79.5v-305q0 -76 -15.5 -133t-50 -95t-90.5 -57t-138 -19q-81 0 -137 19t-90.5 56.5t-49.5 94.5t-15 132v208q0 25 7.5 54t25.5 58t47.5 56.5t73.5 48.5l-30 53l-18 -15q-18 -16 -42 -36
t-41 -33l-144 121l72 71l75 -64l95 76q57 -10 92.5 -59.5t35.5 -137.5q-51 -25 -78.5 -49t-40 -47.5t-15 -47.5t-2.5 -49v-210q0 -51 9.5 -88.5t30.5 -61.5t55 -35.5t84 -11.5t84.5 11.5t56 36t31 62t9.5 89.5v307q0 24 -5.5 40.5t-21.5 27t-45 15t-75 4.5v103q51 0 80.5 8
t44 24t18.5 40.5t4 57.5v21h113v-21v0z" />
    <glyph glyph-name="sosothai" unicode="&#xe0b;" horiz-adv-x="826" 
d="M726 919q0 -43 -1 -72.5t-5.5 -50.5t-14 -35t-27.5 -26q27 -25 36 -56.5t12 -79.5v-305q0 -76 -15.5 -133t-50 -95t-90.5 -57t-138 -19q-81 0 -137 19t-90.5 56.5t-49.5 94.5t-15 132v208q0 25 7.5 54t25.5 58t47.5 56.5t73.5 48.5l-30 53l-18 -15q-18 -16 -42 -36
t-41 -33l-144 121l72 71l75 -64l95 76q57 -10 92.5 -59.5t35.5 -137.5q-51 -25 -78.5 -49t-40 -47.5t-15 -47.5t-2.5 -49v-210q0 -51 9.5 -88.5t30.5 -61.5t55 -35.5t84 -11.5t84.5 11.5t56 36t31 62t9.5 89.5v307q0 24 -5.5 40.5t-21.5 27t-45 15t-75 4.5v103q51 0 80.5 8
t44 24t18.5 40.5t4 57.5v21h113v-21v0z" />
    <glyph glyph-name="chochoethai" unicode="&#xac;" horiz-adv-x="1390" 
d="M1291 891v-569q0 -85 -25 -147.5t-68.5 -103.5t-101 -61t-123.5 -20q-73 0 -125 24.5t-93 62.5q-16 -37 -53.5 -57t-82.5 -20h-68v93h68q11 0 17 12t6 26v466q0 104 -51 152t-157 48q-35 0 -67.5 -3t-61 -12t-52 -26t-40.5 -45v-591q0 -13 8 -20t21 -7h70v-93h-70
q-26 0 -51.5 4.5t-45.5 18t-32.5 37t-12.5 61.5v628q32 49 66 78.5t73.5 45.5t87 21.5t106.5 5.5q166 0 244 -75.5t78 -227.5v-389q17 -24 40 -44.5t51 -36.5t60 -25t67 -9q45 0 82.5 14.5t65 43.5t42.5 72t15 99v569h113z" />
    <glyph glyph-name="chochoethai" unicode="&#xe0c;" horiz-adv-x="1390" 
d="M1291 891v-569q0 -85 -25 -147.5t-68.5 -103.5t-101 -61t-123.5 -20q-73 0 -125 24.5t-93 62.5q-16 -37 -53.5 -57t-82.5 -20h-68v93h68q11 0 17 12t6 26v466q0 104 -51 152t-157 48q-35 0 -67.5 -3t-61 -12t-52 -26t-40.5 -45v-591q0 -13 8 -20t21 -7h70v-93h-70
q-26 0 -51.5 4.5t-45.5 18t-32.5 37t-12.5 61.5v628q32 49 66 78.5t73.5 45.5t87 21.5t106.5 5.5q166 0 244 -75.5t78 -227.5v-389q17 -24 40 -44.5t51 -36.5t60 -25t67 -9q45 0 82.5 14.5t65 43.5t42.5 72t15 99v569h113z" />
    <glyph glyph-name="yoyingthai" unicode="&#xad;" horiz-adv-x="1400" 
d="M1300 890v-933q0 -77 -17.5 -135t-55 -96t-97 -57t-142.5 -19q-59 0 -108.5 9t-92.5 28.5t-80.5 51.5t-73.5 77l77 75q31 -39 62 -65t64.5 -41.5t70.5 -22.5t81 -7q103 0 151 54t48 148v85q-83 -52 -213 -52q-168 0 -246.5 77.5t-78.5 232.5v296q0 106 -52 153.5
t-158 47.5q-36 0 -69.5 -3t-62.5 -12t-52.5 -25.5t-41.5 -44.5v-590q0 -13 8.5 -21t22.5 -8h71v-93h-70q-27 0 -53.5 4t-46.5 17t-32.5 36.5t-12.5 61.5v629q32 49 66.5 79t75 46t89 21.5t108.5 5.5q168 0 245.5 -78t77.5 -232v-293q0 -107 52 -155.5t161 -48.5
q104 0 158 44.5t54 143.5v609h113z" />
    <glyph glyph-name="yoyingthai" unicode="&#xe0d;" horiz-adv-x="1400" 
d="M1300 890v-933q0 -77 -17.5 -135t-55 -96t-97 -57t-142.5 -19q-59 0 -108.5 9t-92.5 28.5t-80.5 51.5t-73.5 77l77 75q31 -39 62 -65t64.5 -41.5t70.5 -22.5t81 -7q103 0 151 54t48 148v85q-83 -52 -213 -52q-168 0 -246.5 77.5t-78.5 232.5v296q0 106 -52 153.5
t-158 47.5q-36 0 -69.5 -3t-62.5 -12t-52.5 -25.5t-41.5 -44.5v-590q0 -13 8.5 -21t22.5 -8h71v-93h-70q-27 0 -53.5 4t-46.5 17t-32.5 36.5t-12.5 61.5v629q32 49 66.5 79t75 46t89 21.5t108.5 5.5q168 0 245.5 -78t77.5 -232v-293q0 -107 52 -155.5t161 -48.5
q104 0 158 44.5t54 143.5v609h113z" />
    <glyph glyph-name="yoyingthai" unicode="&#xde;" horiz-adv-x="1400" 
d="M1300 890v-933q0 -77 -17.5 -135t-55 -96t-97 -57t-142.5 -19q-59 0 -108.5 9t-92.5 28.5t-80.5 51.5t-73.5 77l77 75q31 -39 62 -65t64.5 -41.5t70.5 -22.5t81 -7q103 0 151 54t48 148v85q-83 -52 -213 -52q-168 0 -246.5 77.5t-78.5 232.5v296q0 106 -52 153.5
t-158 47.5q-36 0 -69.5 -3t-62.5 -12t-52.5 -25.5t-41.5 -44.5v-590q0 -13 8.5 -21t22.5 -8h71v-93h-70q-27 0 -53.5 4t-46.5 17t-32.5 36.5t-12.5 61.5v629q32 49 66.5 79t75 46t89 21.5t108.5 5.5q168 0 245.5 -78t77.5 -232v-293q0 -107 52 -155.5t161 -48.5
q104 0 158 44.5t54 143.5v609h113z" />
    <glyph glyph-name="dochadathai" unicode="&#xae;" horiz-adv-x="885" 
d="M785 -349h-88l-83 55l-86 -55h-352v103h333l106 71l57 -43v816q0 104 -51 151.5t-157 47.5q-35 0 -67 -3.5t-60.5 -12.5t-52 -25.5t-41.5 -42.5v-592q0 -38 -12 -61.5t-32 -36.5t-45.5 -18t-52.5 -5h-69v93h69q13 0 21 7.5t8 20.5v628q32 49 66.5 78.5t74.5 45.5t87 21.5
t106 5.5q165 0 243 -75t78 -228v-946z" />
    <glyph glyph-name="dochadathai" unicode="&#xe0e;" horiz-adv-x="885" 
d="M785 -349h-88l-83 55l-86 -55h-352v103h333l106 71l57 -43v816q0 104 -51 151.5t-157 47.5q-35 0 -67 -3.5t-60.5 -12.5t-52 -25.5t-41.5 -42.5v-592q0 -38 -12 -61.5t-32 -36.5t-45.5 -18t-52.5 -5h-69v93h69q13 0 21 7.5t8 20.5v628q32 49 66.5 78.5t74.5 45.5t87 21.5
t106 5.5q165 0 243 -75t78 -228v-946z" />
    <glyph glyph-name="topatakthai" unicode="&#xaf;" horiz-adv-x="885" 
d="M427 -295q-20 -13 -42.5 -28l-40.5 -27h-168v103h147l105 70l90 -63l97 64l57 -43v817q0 104 -50.5 151.5t-156.5 47.5q-35 0 -67.5 -3.5t-61 -12.5t-52 -25.5t-41.5 -43.5v-590q0 -36 -12 -60t-32 -37.5t-45.5 -19t-52.5 -5.5h-69v93h69q13 0 21 7.5t8 19.5v629
q32 48 66.5 78t74 46t87.5 21.5t107 5.5q165 0 242.5 -75t77.5 -228v-947h-88l-83 55q-23 -14 -48.5 -29.5t-46.5 -29.5z" />
    <glyph glyph-name="topatakthai" unicode="&#xe0f;" horiz-adv-x="885" 
d="M427 -295q-20 -13 -42.5 -28l-40.5 -27h-168v103h147l105 70l90 -63l97 64l57 -43v817q0 104 -50.5 151.5t-156.5 47.5q-35 0 -67.5 -3.5t-61 -12.5t-52 -25.5t-41.5 -43.5v-590q0 -36 -12 -60t-32 -37.5t-45.5 -19t-52.5 -5.5h-69v93h69q13 0 21 7.5t8 19.5v629
q32 48 66.5 78t74 46t87.5 21.5t107 5.5q165 0 242.5 -75t77.5 -228v-947h-88l-83 55q-23 -14 -48.5 -29.5t-46.5 -29.5z" />
    <glyph glyph-name="thothanthai" unicode="&#xb0;" horiz-adv-x="796" 
d="M747 892q-18 -24 -34 -40t-31.5 -26t-30 -15.5t-29.5 -8.5q38 -46 64.5 -129t26.5 -204q0 -105 -21 -187.5t-59.5 -141.5t-92.5 -94t-120 -44q-11 -2 -34 -2h-48v312q0 14 -9 22t-23 8h-100v104h100q26 0 51.5 -6.5t46 -21.5t33 -39.5t12.5 -60.5v-203q73 28 112 119.5
t39 234.5q0 86 -16 148t-46 102t-72 59t-93 19q-33 0 -71.5 -3t-79.5 -12.5t-85 -26.5t-88 -45v116q63 31 148 52.5t176 21.5q38 0 76.5 -4.5t81.5 -4.5q35 0 70 15.5t73 59.5zM713 -43v-171h-90l-103 59q-20 -13 -36 -29t-37 -30h-202v100h192l85 71l77 -71v71h114z" />
    <glyph glyph-name="thothanthai" unicode="&#xe10;" horiz-adv-x="796" 
d="M747 892q-18 -24 -34 -40t-31.5 -26t-30 -15.5t-29.5 -8.5q38 -46 64.5 -129t26.5 -204q0 -105 -21 -187.5t-59.5 -141.5t-92.5 -94t-120 -44q-11 -2 -34 -2h-48v312q0 14 -9 22t-23 8h-100v104h100q26 0 51.5 -6.5t46 -21.5t33 -39.5t12.5 -60.5v-203q73 28 112 119.5
t39 234.5q0 86 -16 148t-46 102t-72 59t-93 19q-33 0 -71.5 -3t-79.5 -12.5t-85 -26.5t-88 -45v116q63 31 148 52.5t176 21.5q38 0 76.5 -4.5t81.5 -4.5q35 0 70 15.5t73 59.5zM713 -43v-171h-90l-103 59q-20 -13 -36 -29t-37 -30h-202v100h192l85 71l77 -71v71h114z" />
    <glyph glyph-name="thonangmonthothai" unicode="&#xb1;" horiz-adv-x="1028" 
d="M815 571q0 56 -15 98t-42 70.5t-64.5 43t-82.5 14.5q-35 0 -67 -9.5t-60 -25.5t-51 -37t-40 -44v-681h-113v748q-1 8 -2 13.5t-6 12.5q-5 -4 -10.5 -9t-16 -14t-28.5 -24t-47 -40l-147 118l70 72l76 -62q6 5 13.5 11t18.5 14.5t26.5 20.5t37.5 29q40 -7 70 -23t44 -51
q42 44 97.5 64t134.5 20q66 0 123.5 -20t100.5 -60.5t68 -102.5t25 -146v-571h-113v571v0z" />
    <glyph glyph-name="thonangmonthothai" unicode="&#xe11;" horiz-adv-x="1028" 
d="M815 571q0 56 -15 98t-42 70.5t-64.5 43t-82.5 14.5q-35 0 -67 -9.5t-60 -25.5t-51 -37t-40 -44v-681h-113v748q-1 8 -2 13.5t-6 12.5q-5 -4 -10.5 -9t-16 -14t-28.5 -24t-47 -40l-147 118l70 72l76 -62q6 5 13.5 11t18.5 14.5t26.5 20.5t37.5 29q40 -7 70 -23t44 -51
q42 44 97.5 64t134.5 20q66 0 123.5 -20t100.5 -60.5t68 -102.5t25 -146v-571h-113v571v0z" />
    <glyph glyph-name="thophuthaothai" unicode="&#xb2;" horiz-adv-x="1420" 
d="M1321 890v-569q0 -85 -25 -147t-68 -103t-100.5 -61t-123.5 -20q-74 0 -126 23t-94 63q-14 -43 -50.5 -59.5t-84.5 -16.5h-67v93h67q11 0 16.5 12t5.5 26v638q0 2 -10.5 8.5t-31.5 15.5l-111 -99l-113 99q-48 -3 -88.5 -27.5t-70 -69.5t-45.5 -110t-16 -148
q0 -87 19.5 -152t50 -107.5t68 -64t74.5 -21.5q14 0 47.5 1t65.5 6v-100q-38 -8 -63 -9t-53 -1q-58 0 -115.5 26.5t-103.5 81.5t-74.5 139.5t-28.5 200.5q0 114 26 200.5t73 144.5t112.5 87.5t144.5 29.5l91 -76q24 18 48.5 38.5t47.5 38.5q28 -8 54.5 -22.5t48.5 -30.5
t39 -31.5t27 -25.5v-585q34 -48 91 -79.5t129 -31.5q45 0 82.5 14.5t64.5 43t42 70.5t15 98v569h113z" />
    <glyph glyph-name="thophuthaothai" unicode="&#xe12;" horiz-adv-x="1420" 
d="M1321 890v-569q0 -85 -25 -147t-68 -103t-100.5 -61t-123.5 -20q-74 0 -126 23t-94 63q-14 -43 -50.5 -59.5t-84.5 -16.5h-67v93h67q11 0 16.5 12t5.5 26v638q0 2 -10.5 8.5t-31.5 15.5l-111 -99l-113 99q-48 -3 -88.5 -27.5t-70 -69.5t-45.5 -110t-16 -148
q0 -87 19.5 -152t50 -107.5t68 -64t74.5 -21.5q14 0 47.5 1t65.5 6v-100q-38 -8 -63 -9t-53 -1q-58 0 -115.5 26.5t-103.5 81.5t-74.5 139.5t-28.5 200.5q0 114 26 200.5t73 144.5t112.5 87.5t144.5 29.5l91 -76q24 18 48.5 38.5t47.5 38.5q28 -8 54.5 -22.5t48.5 -30.5
t39 -31.5t27 -25.5v-585q34 -48 91 -79.5t129 -31.5q45 0 82.5 14.5t64.5 43t42 70.5t15 98v569h113z" />
    <glyph glyph-name="nonenthai" unicode="&#xb3;" horiz-adv-x="1422" 
d="M1381 93v-93h-68q-95 0 -123 76q-42 -42 -97.5 -64t-133.5 -22q-66 0 -123.5 20t-101 61t-68.5 103.5t-25 146.5v276q0 104 -50.5 151.5t-156.5 47.5q-35 0 -67.5 -3.5t-61 -12.5t-52 -26t-40.5 -44v-589q0 -13 8 -20.5t21 -7.5h70v-93h-70q-27 0 -52.5 4.5t-45.5 17
t-32 35.5t-12 61v631q32 49 66.5 78.5t74 45.5t87 21.5t106.5 5.5q166 0 243 -75t77 -228v-276q0 -56 15 -98.5t42.5 -71.5t65 -43.5t82.5 -14.5q34 0 66 9t60 25t52 37t42 44v682h113v-759q0 -14 5.5 -26t16.5 -12h67z" />
    <glyph glyph-name="nonenthai" unicode="&#xe13;" horiz-adv-x="1422" 
d="M1381 93v-93h-68q-95 0 -123 76q-42 -42 -97.5 -64t-133.5 -22q-66 0 -123.5 20t-101 61t-68.5 103.5t-25 146.5v276q0 104 -50.5 151.5t-156.5 47.5q-35 0 -67.5 -3.5t-61 -12.5t-52 -26t-40.5 -44v-589q0 -13 8 -20.5t21 -7.5h70v-93h-70q-27 0 -52.5 4.5t-45.5 17
t-32 35.5t-12 61v631q32 49 66.5 78.5t74 45.5t87 21.5t106.5 5.5q166 0 243 -75t77 -228v-276q0 -56 15 -98.5t42.5 -71.5t65 -43.5t82.5 -14.5q34 0 66 9t60 25t52 37t42 44v682h113v-759q0 -14 5.5 -26t16.5 -12h67z" />
    <glyph glyph-name="dodekthai" unicode="&#xb4;" horiz-adv-x="885" 
d="M185 437q0 -87 19 -152t50 -107.5t68.5 -63.5t75.5 -21t76 1.5t76 5.5v-99q-40 -8 -79 -9.5t-85 -1.5q-54 0 -110 26t-101.5 81t-74 139t-28.5 201q0 114 25 201t70.5 145t109 87.5t139.5 29.5q57 0 111.5 -9t102.5 -23.5t88 -33t67 -36.5v-798h-113v734q-18 11 -46 22
t-62 20t-72 15t-76 6q-51 0 -93.5 -24t-73 -70t-47.5 -113t-17 -153z" />
    <glyph glyph-name="dodekthai" unicode="&#xe14;" horiz-adv-x="885" 
d="M185 437q0 -87 19 -152t50 -107.5t68.5 -63.5t75.5 -21t76 1.5t76 5.5v-99q-40 -8 -79 -9.5t-85 -1.5q-54 0 -110 26t-101.5 81t-74 139t-28.5 201q0 114 25 201t70.5 145t109 87.5t139.5 29.5q57 0 111.5 -9t102.5 -23.5t88 -33t67 -36.5v-798h-113v734q-18 11 -46 22
t-62 20t-72 15t-76 6q-51 0 -93.5 -24t-73 -70t-47.5 -113t-17 -153z" />
    <glyph glyph-name="totaothai" unicode="&#xb5;" horiz-adv-x="884" 
d="M615 901q28 -8 54.5 -22.5t48.5 -30.5t39 -31.5t27 -25.5v-791h-113v769q0 2 -10.5 8.5t-31.5 15.5l-111 -99l-113 99q-48 -3 -88.5 -27.5t-70 -69.5t-45.5 -109.5t-16 -148.5q0 -87 19.5 -152t50 -107.5t68 -64t74.5 -21.5q14 0 47.5 1t65.5 6v-100q-38 -8 -63 -9
t-53 -1q-58 0 -115.5 26.5t-103.5 81.5t-74.5 139.5t-28.5 200.5q0 114 26 200.5t73 144.5t112.5 87.5t144.5 29.5l91 -76q24 18 48.5 38.5t47.5 38.5z" />
    <glyph glyph-name="totaothai" unicode="&#xe15;" horiz-adv-x="884" 
d="M615 901q28 -8 54.5 -22.5t48.5 -30.5t39 -31.5t27 -25.5v-791h-113v769q0 2 -10.5 8.5t-31.5 15.5l-111 -99l-113 99q-48 -3 -88.5 -27.5t-70 -69.5t-45.5 -109.5t-16 -148.5q0 -87 19.5 -152t50 -107.5t68 -64t74.5 -21.5q14 0 47.5 1t65.5 6v-100q-38 -8 -63 -9
t-53 -1q-58 0 -115.5 26.5t-103.5 81.5t-74.5 139.5t-28.5 200.5q0 114 26 200.5t73 144.5t112.5 87.5t144.5 29.5l91 -76q24 18 48.5 38.5t47.5 38.5z" />
    <glyph glyph-name="thothungthai" unicode="&#xb6;" horiz-adv-x="853" 
d="M433 797q-35 0 -67.5 -3t-61 -12t-51.5 -25.5t-40 -43.5v-592q0 -13 8 -20.5t21 -7.5h69v-93h-69q-27 0 -52.5 4.5t-45.5 18t-32 36.5t-12 61v628q32 49 66 79t73.5 46t86.5 21.5t106 5.5q166 0 243.5 -75.5t77.5 -227.5v-597h-113v598q0 104 -50.5 151.5t-156.5 47.5z
" />
    <glyph glyph-name="thothungthai" unicode="&#xe16;" horiz-adv-x="853" 
d="M433 797q-35 0 -67.5 -3t-61 -12t-51.5 -25.5t-40 -43.5v-592q0 -13 8 -20.5t21 -7.5h69v-93h-69q-27 0 -52.5 4.5t-45.5 18t-32 36.5t-12 61v628q32 49 66 79t73.5 46t86.5 21.5t106 5.5q166 0 243.5 -75.5t77.5 -227.5v-597h-113v598q0 104 -50.5 151.5t-156.5 47.5z
" />
    <glyph glyph-name="thothahanthai" unicode="&#xb7;" horiz-adv-x="879" 
d="M666 572q0 56 -15 98.5t-42 70.5t-64.5 42t-82.5 14q-35 0 -66.5 -9.5t-59.5 -25t-51.5 -36.5t-41.5 -43v-683h-113v759q0 14 -6 26t-17 12h-68v93h68q47 0 78.5 -18.5t45.5 -58.5q42 42 98.5 64.5t132.5 22.5q65 0 123 -20t101 -60.5t68 -102.5t25 -146v-571h-113v572v0
z" />
    <glyph glyph-name="thothahanthai" unicode="&#x2219;" horiz-adv-x="879" 
d="M666 572q0 56 -15 98.5t-42 70.5t-64.5 42t-82.5 14q-35 0 -66.5 -9.5t-59.5 -25t-51.5 -36.5t-41.5 -43v-683h-113v759q0 14 -6 26t-17 12h-68v93h68q47 0 78.5 -18.5t45.5 -58.5q42 42 98.5 64.5t132.5 22.5q65 0 123 -20t101 -60.5t68 -102.5t25 -146v-571h-113v572v0
z" />
    <glyph glyph-name="thothahanthai" unicode="&#xe17;" horiz-adv-x="879" 
d="M666 572q0 56 -15 98.5t-42 70.5t-64.5 42t-82.5 14q-35 0 -66.5 -9.5t-59.5 -25t-51.5 -36.5t-41.5 -43v-683h-113v759q0 14 -6 26t-17 12h-68v93h68q47 0 78.5 -18.5t45.5 -58.5q42 42 98.5 64.5t132.5 22.5q65 0 123 -20t101 -60.5t68 -102.5t25 -146v-571h-113v572v0
z" />
    <glyph glyph-name="thothongthai" unicode="&#xb8;" horiz-adv-x="831" 
d="M204 668q0 -37 20.5 -62t53.5 -41.5t74 -27t83 -18.5q57 -11 113.5 -26t101 -43t72 -73t27.5 -116q0 -63 -19 -113t-54.5 -85.5t-86.5 -54t-116 -18.5q-43 0 -93.5 3.5t-100.5 19t-97 47t-82 88.5v219h113v-180q20 -27 49 -45t63.5 -28.5t72 -14.5t75.5 -4q77 0 120 44
t43 122q0 35 -20.5 60t-53.5 43t-74 29.5t-82 19.5q-57 11 -113 26t-101 42.5t-73 72t-28 114.5q0 56 25 99.5t68.5 73t101 44.5t123.5 15q54 0 102.5 -15t91 -38t77.5 -50.5t62 -52.5l-61 -81q-43 37 -90 67q-40 25 -88 46t-94 21q-43 0 -80.5 -9t-65 -25.5t-43.5 -40.5
t-16 -54z" />
    <glyph glyph-name="thothongthai" unicode="&#xe18;" horiz-adv-x="831" 
d="M204 668q0 -37 20.5 -62t53.5 -41.5t74 -27t83 -18.5q57 -11 113.5 -26t101 -43t72 -73t27.5 -116q0 -63 -19 -113t-54.5 -85.5t-86.5 -54t-116 -18.5q-43 0 -93.5 3.5t-100.5 19t-97 47t-82 88.5v219h113v-180q20 -27 49 -45t63.5 -28.5t72 -14.5t75.5 -4q77 0 120 44
t43 122q0 35 -20.5 60t-53.5 43t-74 29.5t-82 19.5q-57 11 -113 26t-101 42.5t-73 72t-28 114.5q0 56 25 99.5t68.5 73t101 44.5t123.5 15q54 0 102.5 -15t91 -38t77.5 -50.5t62 -52.5l-61 -81q-43 37 -90 67q-40 25 -88 46t-94 21q-43 0 -80.5 -9t-65 -25.5t-43.5 -40.5
t-16 -54z" />
    <glyph glyph-name="nonuthai" unicode="&#xb9;" horiz-adv-x="908" 
d="M868 93v-93h-67q-46 0 -78.5 20t-48.5 57q-41 -41 -97 -64t-131 -23q-66 0 -123.5 20t-100.5 61t-68 103.5t-25 146.5v437q0 13 -5.5 24.5t-14.5 11.5h-68v96h68q68 0 100.5 -33.5t32.5 -98.5v-437q0 -56 15 -98.5t42 -71.5t64.5 -43.5t82.5 -14.5q70 0 127.5 33t91.5 81
v683h113v-759q0 -14 6 -26t17 -12h67z" />
    <glyph glyph-name="nonuthai" unicode="&#xe19;" horiz-adv-x="908" 
d="M868 93v-93h-67q-46 0 -78.5 20t-48.5 57q-41 -41 -97 -64t-131 -23q-66 0 -123.5 20t-100.5 61t-68 103.5t-25 146.5v437q0 13 -5.5 24.5t-14.5 11.5h-68v96h68q68 0 100.5 -33.5t32.5 -98.5v-437q0 -56 15 -98.5t42 -71.5t64.5 -43.5t82.5 -14.5q70 0 127.5 33t91.5 81
v683h113v-759q0 -14 6 -26t17 -12h67z" />
    <glyph glyph-name="bobaimaithai" unicode="&#xba;" horiz-adv-x="873" 
d="M773 890v-595q0 -162 -82 -233.5t-241 -71.5q-166 0 -243 76.5t-77 228.5v471q0 13 -8 20.5t-22 7.5h-69v96h69q26 0 51.5 -5t46 -18t33 -36.5t12.5 -60.5v-475q0 -105 51 -153.5t157 -48.5t157.5 48.5t51.5 153.5v595h113z" />
    <glyph glyph-name="bobaimaithai" unicode="&#xe1a;" horiz-adv-x="873" 
d="M773 890v-595q0 -162 -82 -233.5t-241 -71.5q-166 0 -243 76.5t-77 228.5v471q0 13 -8 20.5t-22 7.5h-69v96h69q26 0 51.5 -5t46 -18t33 -36.5t12.5 -60.5v-475q0 -105 51 -153.5t157 -48.5t157.5 48.5t51.5 153.5v595h113z" />
    <glyph glyph-name="poplathai" unicode="&#xbb;" horiz-adv-x="874" 
d="M774 1100v-805q0 -162 -82.5 -233.5t-241.5 -71.5q-166 0 -243 76t-77 229v471q0 13 -8 21t-22 8h-69v95h69q27 0 52.5 -5t45.5 -18t32.5 -36.5t12.5 -60.5v-475q0 -105 51 -153.5t157 -48.5t158 48.5t52 153.5v805h113z" />
    <glyph glyph-name="poplathai" unicode="&#xe1b;" horiz-adv-x="874" 
d="M774 1100v-805q0 -162 -82.5 -233.5t-241.5 -71.5q-166 0 -243 76t-77 229v471q0 13 -8 21t-22 8h-69v95h69q27 0 52.5 -5t45.5 -18t32.5 -36.5t12.5 -60.5v-475q0 -105 51 -153.5t157 -48.5t158 48.5t52 153.5v805h113z" />
    <glyph glyph-name="phophungthai" unicode="&#xbc;" horiz-adv-x="1033" 
d="M934 890v-552q0 -83 -17.5 -147.5t-50 -109t-77.5 -68t-100 -23.5q-51 0 -97 21.5t-75 65.5q-31 -38 -74 -62.5t-99 -24.5t-101 23.5t-77 68t-49.5 109t-17.5 147.5v420q0 66 35.5 99t99.5 33h68v-95h-68q-11 0 -16.5 -12t-5.5 -25v-420q0 -55 8.5 -100t25.5 -77.5
t41.5 -50t56.5 -17.5q21 0 39.5 8t34.5 21t29.5 29.5t24.5 33.5q-3 24 -6 54.5t-3 63.5v587h113v-587q0 -100 26.5 -155t86.5 -55q31 0 56 17.5t41.5 50t25.5 77.5t9 100v552h113z" />
    <glyph glyph-name="phophungthai" unicode="&#xe1c;" horiz-adv-x="1033" 
d="M934 890v-552q0 -83 -17.5 -147.5t-50 -109t-77.5 -68t-100 -23.5q-51 0 -97 21.5t-75 65.5q-31 -38 -74 -62.5t-99 -24.5t-101 23.5t-77 68t-49.5 109t-17.5 147.5v420q0 66 35.5 99t99.5 33h68v-95h-68q-11 0 -16.5 -12t-5.5 -25v-420q0 -55 8.5 -100t25.5 -77.5
t41.5 -50t56.5 -17.5q21 0 39.5 8t34.5 21t29.5 29.5t24.5 33.5q-3 24 -6 54.5t-3 63.5v587h113v-587q0 -100 26.5 -155t86.5 -55q31 0 56 17.5t41.5 50t25.5 77.5t9 100v552h113z" />
    <glyph glyph-name="fofathai" unicode="&#xbd;" horiz-adv-x="1033" 
d="M934 1100v-762q0 -83 -17.5 -147.5t-50 -109t-77.5 -68t-100 -23.5q-51 0 -97 21.5t-75 65.5q-31 -38 -74 -62.5t-99 -24.5t-101 23.5t-77 68t-49.5 109t-17.5 147.5v420q0 66 35.5 99t99.5 33h68v-95h-68q-11 0 -16.5 -12t-5.5 -25v-420q0 -55 8.5 -100t25.5 -77.5
t41.5 -50t56.5 -17.5q21 0 39.5 8t34.5 21t29.5 29.5t24.5 33.5q-3 24 -6 54.5t-3 63.5v587h113v-587q0 -100 26.5 -155t86.5 -55q31 0 56 17.5t41.5 50t25.5 77.5t9 100v762h113z" />
    <glyph glyph-name="fofathai" unicode="&#xe1d;" horiz-adv-x="1033" 
d="M934 1100v-762q0 -83 -17.5 -147.5t-50 -109t-77.5 -68t-100 -23.5q-51 0 -97 21.5t-75 65.5q-31 -38 -74 -62.5t-99 -24.5t-101 23.5t-77 68t-49.5 109t-17.5 147.5v420q0 66 35.5 99t99.5 33h68v-95h-68q-11 0 -16.5 -12t-5.5 -25v-420q0 -55 8.5 -100t25.5 -77.5
t41.5 -50t56.5 -17.5q21 0 39.5 8t34.5 21t29.5 29.5t24.5 33.5q-3 24 -6 54.5t-3 63.5v587h113v-587q0 -100 26.5 -155t86.5 -55q31 0 56 17.5t41.5 50t25.5 77.5t9 100v762h113z" />
    <glyph glyph-name="phophanthai" unicode="&#xbe;" horiz-adv-x="1063" 
d="M964 890v-551q0 -83 -17.5 -148t-50 -109.5t-78 -68t-100.5 -23.5q-51 0 -96.5 23t-76.5 64q-32 -42 -72.5 -64.5t-100.5 -22.5q-55 0 -100 23.5t-76.5 68t-49 109.5t-17.5 148v419q0 13 -6.5 25t-17.5 12h-69v95h69q66 0 101.5 -33.5t35.5 -98.5v-419q0 -55 8.5 -100.5
t25 -77.5t40.5 -50t56 -18q21 0 39.5 8t35 21t30 29.5t24.5 33.5q-3 24 -5.5 54.5t-2.5 62.5v588h113v-588q0 -100 26.5 -154.5t85.5 -54.5q32 0 56.5 18t41.5 50t26 77.5t9 100.5v551h113z" />
    <glyph glyph-name="phophanthai" unicode="&#xe1e;" horiz-adv-x="1063" 
d="M964 890v-551q0 -83 -17.5 -148t-50 -109.5t-78 -68t-100.5 -23.5q-51 0 -96.5 23t-76.5 64q-32 -42 -72.5 -64.5t-100.5 -22.5q-55 0 -100 23.5t-76.5 68t-49 109.5t-17.5 148v419q0 13 -6.5 25t-17.5 12h-69v95h69q66 0 101.5 -33.5t35.5 -98.5v-419q0 -55 8.5 -100.5
t25 -77.5t40.5 -50t56 -18q21 0 39.5 8t35 21t30 29.5t24.5 33.5q-3 24 -5.5 54.5t-2.5 62.5v588h113v-588q0 -100 26.5 -154.5t85.5 -54.5q32 0 56.5 18t41.5 50t26 77.5t9 100.5v551h113z" />
    <glyph glyph-name="fofanthai" unicode="&#xbf;" horiz-adv-x="1063" 
d="M964 1100v-761q0 -83 -17.5 -148t-50 -109.5t-78 -68t-100.5 -23.5q-51 0 -96.5 23t-76.5 64q-32 -42 -72.5 -64.5t-100.5 -22.5q-55 0 -100 23.5t-76.5 68t-49 109.5t-17.5 148v419q0 13 -6.5 25t-17.5 12h-69v95h69q66 0 101.5 -33.5t35.5 -98.5v-419q0 -55 8.5 -100.5
t25 -77.5t40.5 -50t56 -18q21 0 39.5 8t35 21t30 29.5t24.5 33.5q-3 24 -5.5 54.5t-2.5 62.5v588h113v-588q0 -100 26.5 -154.5t85.5 -54.5q32 0 56.5 18t41.5 50t26 77.5t9 100.5v761h113z" />
    <glyph glyph-name="fofanthai" unicode="&#xe1f;" horiz-adv-x="1063" 
d="M964 1100v-761q0 -83 -17.5 -148t-50 -109.5t-78 -68t-100.5 -23.5q-51 0 -96.5 23t-76.5 64q-32 -42 -72.5 -64.5t-100.5 -22.5q-55 0 -100 23.5t-76.5 68t-49 109.5t-17.5 148v419q0 13 -6.5 25t-17.5 12h-69v95h69q66 0 101.5 -33.5t35.5 -98.5v-419q0 -55 8.5 -100.5
t25 -77.5t40.5 -50t56 -18q21 0 39.5 8t35 21t30 29.5t24.5 33.5q-3 24 -5.5 54.5t-2.5 62.5v588h113v-588q0 -100 26.5 -154.5t85.5 -54.5q32 0 56.5 18t41.5 50t26 77.5t9 100.5v761h113z" />
    <glyph glyph-name="phosamphaothai" unicode="&#xc0;" horiz-adv-x="900" 
d="M473 900q170 0 248.5 -78t78.5 -234v-588h-113v591q0 107 -52 156.5t-161 49.5q-36 0 -70 -3.5t-64 -13.5t-54.5 -27.5t-42.5 -45.5v-580q0 -39 -12 -63.5t-32.5 -39t-46.5 -19.5t-53 -5h-71v93h71q14 0 22.5 8.5t8.5 22.5v620q33 51 68.5 81.5t76 47t89.5 22t109 5.5z
" />
    <glyph glyph-name="phosamphaothai" unicode="&#xe20;" horiz-adv-x="900" 
d="M473 900q170 0 248.5 -78t78.5 -234v-588h-113v591q0 107 -52 156.5t-161 49.5q-36 0 -70 -3.5t-64 -13.5t-54.5 -27.5t-42.5 -45.5v-580q0 -39 -12 -63.5t-32.5 -39t-46.5 -19.5t-53 -5h-71v93h71q14 0 22.5 8.5t8.5 22.5v620q33 51 68.5 81.5t76 47t89.5 22t109 5.5z
" />
    <glyph glyph-name="momathai" unicode="&#xc1;" horiz-adv-x="895" 
d="M796 890v-559q0 -88 -25.5 -152t-69 -106t-102.5 -62.5t-126 -20.5q-77 0 -132.5 24t-97.5 66q-16 -39 -52.5 -59.5t-84.5 -20.5h-69v93h69q11 0 17.5 13t6.5 28v756h113v-681q18 -24 42.5 -45.5t54.5 -37t63.5 -24.5t69.5 -9q46 0 84.5 15.5t66.5 45.5t43.5 74.5
t15.5 102.5v559h113z" />
    <glyph glyph-name="momathai" unicode="&#xe21;" horiz-adv-x="895" 
d="M796 890v-559q0 -88 -25.5 -152t-69 -106t-102.5 -62.5t-126 -20.5q-77 0 -132.5 24t-97.5 66q-16 -39 -52.5 -59.5t-84.5 -20.5h-69v93h69q11 0 17.5 13t6.5 28v756h113v-681q18 -24 42.5 -45.5t54.5 -37t63.5 -24.5t69.5 -9q46 0 84.5 15.5t66.5 45.5t43.5 74.5
t15.5 102.5v559h113z" />
    <glyph glyph-name="yoyakthai" unicode="&#xc2;" horiz-adv-x="910" 
d="M810 890v-585q0 -158 -89 -236.5t-261 -78.5q-84 0 -151 19.5t-113.5 59t-71 98.5t-24.5 138v33q0 22 7 41.5t17.5 37t23 33t23.5 27.5q-18 12 -31.5 24.5t-22 30t-13 41.5t-4.5 58v137q0 38 12.5 62t33.5 37.5t47 18t53 4.5h72v-93h-72q-14 0 -23.5 -8t-9.5 -21v-109
q0 -34 4 -59t20 -41.5t46.5 -24.5t83.5 -8v-93q-47 0 -77 -4.5t-47 -15t-23.5 -27.5t-6.5 -42v-39q0 -54 18 -94t50.5 -66t78 -39t99.5 -13q112 0 175 51.5t63 160.5v585h113z" />
    <glyph glyph-name="yoyakthai" unicode="&#xe22;" horiz-adv-x="910" 
d="M810 890v-585q0 -158 -89 -236.5t-261 -78.5q-84 0 -151 19.5t-113.5 59t-71 98.5t-24.5 138v33q0 22 7 41.5t17.5 37t23 33t23.5 27.5q-18 12 -31.5 24.5t-22 30t-13 41.5t-4.5 58v137q0 38 12.5 62t33.5 37.5t47 18t53 4.5h72v-93h-72q-14 0 -23.5 -8t-9.5 -21v-109
q0 -34 4 -59t20 -41.5t46.5 -24.5t83.5 -8v-93q-47 0 -77 -4.5t-47 -15t-23.5 -27.5t-6.5 -42v-39q0 -54 18 -94t50.5 -66t78 -39t99.5 -13q112 0 175 51.5t63 160.5v585h113z" />
    <glyph glyph-name="roruathai" unicode="&#xc3;" horiz-adv-x="841" 
d="M198 660q0 -40 20.5 -66t54.5 -42.5t78 -27t90 -19.5q58 -11 115 -25t102.5 -40t73.5 -69.5t28 -113.5q0 -131 -75.5 -199t-209.5 -68q-44 0 -96 4t-105.5 22t-104.5 55.5t-93 103.5l91 49q27 -38 63 -63.5t77 -40.5t84 -21t84 -6q79 0 124 41.5t45 122.5q0 40 -20.5 66
t-54.5 43t-78 27.5t-90 19.5q-59 12 -116 25.5t-102.5 39.5t-73.5 69t-28 113q0 58 26 103t70.5 75.5t104 46t127.5 15.5q55 0 105.5 -15.5t94 -39t79.5 -51.5t63 -54l-61 -81q-45 38 -93 69q-42 26 -91 47.5t-97 21.5q-45 0 -83.5 -9.5t-67 -27.5t-44.5 -43.5t-16 -56.5z
" />
    <glyph glyph-name="roruathai" unicode="&#xe23;" horiz-adv-x="841" 
d="M198 660q0 -40 20.5 -66t54.5 -42.5t78 -27t90 -19.5q58 -11 115 -25t102.5 -40t73.5 -69.5t28 -113.5q0 -131 -75.5 -199t-209.5 -68q-44 0 -96 4t-105.5 22t-104.5 55.5t-93 103.5l91 49q27 -38 63 -63.5t77 -40.5t84 -21t84 -6q79 0 124 41.5t45 122.5q0 40 -20.5 66
t-54.5 43t-78 27.5t-90 19.5q-59 12 -116 25.5t-102.5 39.5t-73.5 69t-28 113q0 58 26 103t70.5 75.5t104 46t127.5 15.5q55 0 105.5 -15.5t94 -39t79.5 -51.5t63 -54l-61 -81q-45 38 -93 69q-42 26 -91 47.5t-97 21.5q-45 0 -83.5 -9.5t-67 -27.5t-44.5 -43.5t-16 -56.5z
" />
    <glyph glyph-name="ruthai" unicode="&#xc4;" horiz-adv-x="871" 
d="M442 900q171 0 250 -77.5t79 -234.5v-938h-113v941q0 107 -53 156.5t-162 49.5q-36 0 -69.5 -3.5t-63.5 -13t-54.5 -27t-42.5 -44.5v-585q0 -14 9.5 -22.5t23.5 -8.5h71v-93h-71q-27 0 -53 4.5t-47 18t-33.5 38t-12.5 63.5v620q33 51 67.5 81.5t75.5 47t89.5 22
t109.5 5.5z" />
    <glyph glyph-name="ruthai" unicode="&#xe24;" horiz-adv-x="871" 
d="M442 900q171 0 250 -77.5t79 -234.5v-938h-113v941q0 107 -53 156.5t-162 49.5q-36 0 -69.5 -3.5t-63.5 -13t-54.5 -27t-42.5 -44.5v-585q0 -14 9.5 -22.5t23.5 -8.5h71v-93h-71q-27 0 -53 4.5t-47 18t-33.5 38t-12.5 63.5v620q33 51 67.5 81.5t75.5 47t89.5 22
t109.5 5.5z" />
    <glyph glyph-name="lolingthai" unicode="&#xc5;" horiz-adv-x="913" 
d="M886 93v-93h-70q-46 0 -74.5 10t-44.5 32.5t-21.5 58.5t-5.5 89v235q-18 5 -44.5 9.5t-56.5 8t-60.5 5.5t-57.5 2q-56 0 -102.5 -9.5t-80.5 -31t-53 -57.5t-19 -88q0 -80 57 -125.5t177 -45.5q34 0 69 2.5t86 16.5v-107q-45 -11 -81.5 -13t-73.5 -2q-89 0 -154.5 19.5
t-108 55t-63.5 86t-21 113.5q0 78 28.5 133t78.5 90.5t116.5 52t143.5 16.5q61 0 119.5 -6.5t100.5 -17.5v56q0 47 -12 85t-36.5 64.5t-63 41t-90.5 14.5q-44 0 -82 -7t-72.5 -23t-66 -42.5t-62.5 -66.5l-77 78q36 45 74 77t82 52.5t94 29.5t110 9q84 0 144 -19.5t98 -58.5
t55.5 -97t17.5 -136v-468q0 -13 9.5 -20.5t23.5 -7.5h70z" />
    <glyph glyph-name="lolingthai" unicode="&#xe25;" horiz-adv-x="913" 
d="M886 93v-93h-70q-46 0 -74.5 10t-44.5 32.5t-21.5 58.5t-5.5 89v235q-18 5 -44.5 9.5t-56.5 8t-60.5 5.5t-57.5 2q-56 0 -102.5 -9.5t-80.5 -31t-53 -57.5t-19 -88q0 -80 57 -125.5t177 -45.5q34 0 69 2.5t86 16.5v-107q-45 -11 -81.5 -13t-73.5 -2q-89 0 -154.5 19.5
t-108 55t-63.5 86t-21 113.5q0 78 28.5 133t78.5 90.5t116.5 52t143.5 16.5q61 0 119.5 -6.5t100.5 -17.5v56q0 47 -12 85t-36.5 64.5t-63 41t-90.5 14.5q-44 0 -82 -7t-72.5 -23t-66 -42.5t-62.5 -66.5l-77 78q36 45 74 77t82 52.5t94 29.5t110 9q84 0 144 -19.5t98 -58.5
t55.5 -97t17.5 -136v-468q0 -13 9.5 -20.5t23.5 -7.5h70z" />
    <glyph glyph-name="luthai" unicode="&#xc6;" horiz-adv-x="901" 
d="M474 900q170 0 248.5 -78t78.5 -234v-937h-113v940q0 107 -52 156.5t-161 49.5q-36 0 -70.5 -3.5t-64.5 -13t-54.5 -27t-42.5 -44.5v-582q0 -39 -12 -63.5t-32.5 -39t-46 -19.5t-52.5 -5h-72v93h72q14 0 22 8.5t8 22.5v620q33 51 68 81.5t76 47t90 22t110 5.5z" />
    <glyph glyph-name="luthai" unicode="&#xe26;" horiz-adv-x="901" 
d="M474 900q170 0 248.5 -78t78.5 -234v-937h-113v940q0 107 -52 156.5t-161 49.5q-36 0 -70.5 -3.5t-64.5 -13t-54.5 -27t-42.5 -44.5v-582q0 -39 -12 -63.5t-32.5 -39t-46 -19.5t-52.5 -5h-72v93h72q14 0 22 8.5t8 22.5v620q33 51 68 81.5t76 47t90 22t110 5.5z" />
    <glyph glyph-name="wowaenthai" unicode="&#xc7;" horiz-adv-x="709" 
d="M309 900q157 0 228.5 -71.5t71.5 -200.5v-366q0 -129 -71.5 -200.5t-228.5 -71.5q-9 0 -26 1t-38 3.5t-45 5.5l-48 6v104q25 -4 50 -7t46 -5.5t37 -3.5t24 -1q101 0 144 42t43 125v370q0 82 -43 124.5t-144 42.5q-15 0 -49.5 -3.5t-73 -9t-74 -12t-51.5 -11.5v106
q11 3 31 6.5t44 7.5t50.5 7t50.5 6t43 4.5t29 1.5z" />
    <glyph glyph-name="wowaenthai" unicode="&#xe27;" horiz-adv-x="709" 
d="M309 900q157 0 228.5 -71.5t71.5 -200.5v-366q0 -129 -71.5 -200.5t-228.5 -71.5q-9 0 -26 1t-38 3.5t-45 5.5l-48 6v104q25 -4 50 -7t46 -5.5t37 -3.5t24 -1q101 0 144 42t43 125v370q0 82 -43 124.5t-144 42.5q-15 0 -49.5 -3.5t-73 -9t-74 -12t-51.5 -11.5v106
q11 3 31 6.5t44 7.5t50.5 7t50.5 6t43 4.5t29 1.5z" />
    <glyph glyph-name="sosalathai" unicode="&#xc8;" horiz-adv-x="947" 
d="M474 797q-44 0 -86.5 -15t-78 -46t-61 -77t-35.5 -108v-24q8 2 16.5 2h16.5h186v-108h-186q-13 0 -23 -8t-10 -20v-393h-113v555q7 98 40.5 164t84 106.5t114.5 57.5t134 17q62 0 108.5 -14.5t85.5 -31.5q11 13 27.5 26.5t39.5 24t52.5 17t67.5 6.5h57v-108q-47 0 -88 -6
t-63 -16q14 -12 25.5 -24.5t21.5 -26.5v-747h-113v705q-17 16 -42.5 32t-54.5 29.5t-61 22t-62 8.5z" />
    <glyph glyph-name="sosalathai" unicode="&#xe28;" horiz-adv-x="947" 
d="M474 797q-44 0 -86.5 -15t-78 -46t-61 -77t-35.5 -108v-24q8 2 16.5 2h16.5h186v-108h-186q-13 0 -23 -8t-10 -20v-393h-113v555q7 98 40.5 164t84 106.5t114.5 57.5t134 17q62 0 108.5 -14.5t85.5 -31.5q11 13 27.5 26.5t39.5 24t52.5 17t67.5 6.5h57v-108q-47 0 -88 -6
t-63 -16q14 -12 25.5 -24.5t21.5 -26.5v-747h-113v705q-17 16 -42.5 32t-54.5 29.5t-61 22t-62 8.5z" />
    <glyph glyph-name="sorusithai" unicode="&#xc9;" horiz-adv-x="950" 
d="M902 428h-112v-123q0 -167 -83.5 -241t-246.5 -74q-171 0 -250.5 78t-79.5 237v459q0 13 -9 21t-23 8h-71v97h71q28 0 54 -4.5t46 -18t32.5 -37.5t12.5 -62v-463q0 -109 54 -160.5t163 -51.5t163 51.5t54 160.5v123h-110q-27 0 -53.5 7.5t-47.5 24t-34 43t-13 63.5v80
h116v-80q0 -14 9 -23t23 -9h110v356h113v-356h112v-106z" />
    <glyph glyph-name="sorusithai" unicode="&#xe29;" horiz-adv-x="950" 
d="M902 428h-112v-123q0 -167 -83.5 -241t-246.5 -74q-171 0 -250.5 78t-79.5 237v459q0 13 -9 21t-23 8h-71v97h71q28 0 54 -4.5t46 -18t32.5 -37.5t12.5 -62v-463q0 -109 54 -160.5t163 -51.5t163 51.5t54 160.5v123h-110q-27 0 -53.5 7.5t-47.5 24t-34 43t-13 63.5v80
h116v-80q0 -14 9 -23t23 -9h110v356h113v-356h112v-106z" />
    <glyph glyph-name="sosuathai" unicode="&#xca;" horiz-adv-x="912" 
d="M887 93v-93h-71q-46 0 -74.5 10t-44.5 32.5t-22 59t-6 89.5v242q-18 5 -44.5 9.5t-56.5 7.5t-60.5 5t-57.5 2q-55 0 -101.5 -10.5t-80.5 -33.5t-53 -60t-19 -89q0 -81 56.5 -126t177.5 -45q34 0 69 3t86 17v-108q-45 -11 -81 -13t-74 -2q-89 0 -154.5 19t-108 55
t-63.5 86.5t-21 113.5q0 77 28.5 133.5t78 93.5t116 55t143.5 18q63 0 120.5 -7t99.5 -18v52q0 97 -49.5 151.5t-151.5 54.5q-45 0 -83 -7.5t-72 -24t-65.5 -44t-63.5 -66.5l-76 77q36 46 74.5 78t82 52t93.5 29t110 9q53 0 94.5 -6.5t75.5 -22.5q23 23 64 40t107 17h57
v-108q-47 0 -82.5 -4.5t-56.5 -12.5q31 -38 43 -91t12 -123v-468q0 -13 8 -20.5t22 -7.5h75z" />
    <glyph glyph-name="sosuathai" unicode="&#xe2a;" horiz-adv-x="912" 
d="M887 93v-93h-71q-46 0 -74.5 10t-44.5 32.5t-22 59t-6 89.5v242q-18 5 -44.5 9.5t-56.5 7.5t-60.5 5t-57.5 2q-55 0 -101.5 -10.5t-80.5 -33.5t-53 -60t-19 -89q0 -81 56.5 -126t177.5 -45q34 0 69 3t86 17v-108q-45 -11 -81 -13t-74 -2q-89 0 -154.5 19t-108 55
t-63.5 86.5t-21 113.5q0 77 28.5 133.5t78 93.5t116 55t143.5 18q63 0 120.5 -7t99.5 -18v52q0 97 -49.5 151.5t-151.5 54.5q-45 0 -83 -7.5t-72 -24t-65.5 -44t-63.5 -66.5l-76 77q36 46 74.5 78t82 52t93.5 29t110 9q53 0 94.5 -6.5t75.5 -22.5q23 23 64 40t107 17h57
v-108q-47 0 -82.5 -4.5t-56.5 -12.5q31 -38 43 -91t12 -123v-468q0 -13 8 -20.5t22 -7.5h75z" />
    <glyph glyph-name="hohipthai" unicode="&#xcb;" horiz-adv-x="901" 
d="M688 322q0 108 -52 157t-161 49q-44 0 -80 -4t-64.5 -13.5t-50 -25.5t-37.5 -41v-444h-113v753q0 15 -6 28t-18 13h-69v96h69q70 0 103.5 -36.5t33.5 -123.5v-136q42 23 93.5 32t111.5 13q86 6 135.5 53.5t49.5 143.5v54h113v-54q0 -81 -21 -139t-67 -98
q74 -35 108.5 -103.5t34.5 -173.5v-322h-113v322v0z" />
    <glyph glyph-name="hohipthai" unicode="&#xe2b;" horiz-adv-x="901" 
d="M688 322q0 108 -52 157t-161 49q-44 0 -80 -4t-64.5 -13.5t-50 -25.5t-37.5 -41v-444h-113v753q0 15 -6 28t-18 13h-69v96h69q70 0 103.5 -36.5t33.5 -123.5v-136q42 23 93.5 32t111.5 13q86 6 135.5 53.5t49.5 143.5v54h113v-54q0 -81 -21 -139t-67 -98
q74 -35 108.5 -103.5t34.5 -173.5v-322h-113v322v0z" />
    <glyph glyph-name="lochulathai" unicode="&#xcc;" horiz-adv-x="1085" 
d="M987 925q0 -44 -1 -72.5t-5 -47.5t-13.5 -31.5t-25.5 -22.5q22 -26 31.5 -60.5t13.5 -78.5v-264q0 -85 -18 -151.5t-50.5 -112.5t-79 -70t-103.5 -24q-53 0 -100 23t-78 68q-32 -40 -76.5 -65.5t-102.5 -25.5q-57 0 -103 24t-79 70t-51 112.5t-18 151.5v411q0 14 -7 26
t-18 12h-70v93h70q68 0 103.5 -33t35.5 -101v-408q0 -56 9.5 -103t27 -81t43 -52.5t57.5 -18.5q22 0 41.5 8.5t36 22t30.5 31t25 35.5q-5 24 -7 55t-2 65v580h115v-580q0 -103 28.5 -160t89.5 -57q33 0 58.5 18.5t43 52.5t26.5 81t9 103v264q0 25 -6 42t-22.5 27.5
t-46.5 15.5t-77 5v106q52 0 82.5 6t46 19.5t19.5 36t4 55.5v75h114v-75v0z" />
    <glyph glyph-name="lochulathai" unicode="&#xe2c;" horiz-adv-x="1085" 
d="M987 925q0 -44 -1 -72.5t-5 -47.5t-13.5 -31.5t-25.5 -22.5q22 -26 31.5 -60.5t13.5 -78.5v-264q0 -85 -18 -151.5t-50.5 -112.5t-79 -70t-103.5 -24q-53 0 -100 23t-78 68q-32 -40 -76.5 -65.5t-102.5 -25.5q-57 0 -103 24t-79 70t-51 112.5t-18 151.5v411q0 14 -7 26
t-18 12h-70v93h70q68 0 103.5 -33t35.5 -101v-408q0 -56 9.5 -103t27 -81t43 -52.5t57.5 -18.5q22 0 41.5 8.5t36 22t30.5 31t25 35.5q-5 24 -7 55t-2 65v580h115v-580q0 -103 28.5 -160t89.5 -57q33 0 58.5 18.5t43 52.5t26.5 81t9 103v264q0 25 -6 42t-22.5 27.5
t-46.5 15.5t-77 5v106q52 0 82.5 6t46 19.5t19.5 36t4 55.5v75h114v-75v0z" />
    <glyph glyph-name="oangthai" unicode="&#xcd;" horiz-adv-x="854" 
d="M434 900q78 0 142 -25t110 -78.5t71 -138t25 -203.5q0 -118 -25.5 -205.5t-71 -145t-110 -86t-142.5 -28.5q-59 0 -107.5 4t-89 13t-74 23.5t-62.5 34.5v339q0 37 12.5 61t33.5 38.5t47 20t53 5.5h187v-99h-187q-14 0 -23.5 -8.5t-9.5 -21.5v-269q31 -16 86.5 -25.5
t133.5 -9.5q52 0 95.5 22.5t75 67.5t48.5 112.5t17 156.5t-17 153.5t-48 106.5t-74.5 62t-95.5 20q-45 0 -93.5 -9.5t-94.5 -24t-84 -32.5t-62 -35v127q65 32 152.5 54.5t181.5 22.5z" />
    <glyph glyph-name="oangthai" unicode="&#xe2d;" horiz-adv-x="854" 
d="M434 900q78 0 142 -25t110 -78.5t71 -138t25 -203.5q0 -118 -25.5 -205.5t-71 -145t-110 -86t-142.5 -28.5q-59 0 -107.5 4t-89 13t-74 23.5t-62.5 34.5v339q0 37 12.5 61t33.5 38.5t47 20t53 5.5h187v-99h-187q-14 0 -23.5 -8.5t-9.5 -21.5v-269q31 -16 86.5 -25.5
t133.5 -9.5q52 0 95.5 22.5t75 67.5t48.5 112.5t17 156.5t-17 153.5t-48 106.5t-74.5 62t-95.5 20q-45 0 -93.5 -9.5t-94.5 -24t-84 -32.5t-62 -35v127q65 32 152.5 54.5t181.5 22.5z" />
    <glyph glyph-name="honokhukthai" unicode="&#xce;" horiz-adv-x="855" 
d="M823 820q-41 0 -81 -5.5t-64 -14.5q54 -56 79.5 -138t25.5 -207q0 -118 -25 -205.5t-71 -145t-110.5 -86t-143.5 -28.5q-59 0 -107.5 4t-88.5 13t-73.5 23.5t-63.5 34.5v339q0 37 13 62t34 40.5t47.5 22.5t53.5 7h186v-106h-190q-14 0 -22.5 -8.5t-8.5 -21.5v-272
q30 -15 87.5 -25t132.5 -10q53 0 96.5 23t75 68.5t48.5 113.5t17 157t-17 153.5t-48 106.5t-74.5 62t-96.5 20q-44 0 -93 -9.5t-94.5 -24t-84 -32.5t-62.5 -35v127q66 32 154 54.5t180 22.5q41 0 82 -10t74 -24q23 22 67 42t110 20h56v-108z" />
    <glyph glyph-name="honokhukthai" unicode="&#xe2e;" horiz-adv-x="855" 
d="M823 820q-41 0 -81 -5.5t-64 -14.5q54 -56 79.5 -138t25.5 -207q0 -118 -25 -205.5t-71 -145t-110.5 -86t-143.5 -28.5q-59 0 -107.5 4t-88.5 13t-73.5 23.5t-63.5 34.5v339q0 37 13 62t34 40.5t47.5 22.5t53.5 7h186v-106h-190q-14 0 -22.5 -8.5t-8.5 -21.5v-272
q30 -15 87.5 -25t132.5 -10q53 0 96.5 23t75 68.5t48.5 113.5t17 157t-17 153.5t-48 106.5t-74.5 62t-96.5 20q-44 0 -93 -9.5t-94.5 -24t-84 -32.5t-62.5 -35v127q66 32 154 54.5t180 22.5q41 0 82 -10t74 -24q23 22 67 42t110 20h56v-108z" />
    <glyph glyph-name="paiyannoithai" unicode="&#xcf;" horiz-adv-x="680" 
d="M580 900v-900h-116v630q-24 -15 -61 -26t-92 -11q-56 0 -105.5 7.5t-87 38t-59 92t-21.5 169.5h116q0 -73 14 -113.5t36 -60t50 -23.5t57 -4q49 0 79.5 14t46.5 33.5t21.5 40t5.5 33.5v80h116z" />
    <glyph glyph-name="paiyannoithai" unicode="&#xe2f;" horiz-adv-x="680" 
d="M580 900v-900h-116v630q-24 -15 -61 -26t-92 -11q-56 0 -105.5 7.5t-87 38t-59 92t-21.5 169.5h116q0 -73 14 -113.5t36 -60t50 -23.5t57 -4q49 0 79.5 14t46.5 33.5t21.5 40t5.5 33.5v80h116z" />
    <glyph glyph-name="saraathai" unicode="&#xd0;" horiz-adv-x="446" 
d="M202 783v-43q0 -4 31 -4h128v-107h-128q-27 0 -53.5 2t-47.5 12.5t-34 33t-13 63.5v43h117zM202 255v-43q0 -4 31 -4h128v-105h-128q-27 0 -53.5 2t-47.5 12t-34 32t-13 63v43h117z" />
    <glyph glyph-name="saraathai" unicode="&#xe30;" horiz-adv-x="446" 
d="M202 783v-43q0 -4 31 -4h128v-107h-128q-27 0 -53.5 2t-47.5 12.5t-34 33t-13 63.5v43h117zM202 255v-43q0 -4 31 -4h128v-105h-128q-27 0 -53.5 2t-47.5 12t-34 32t-13 63v43h117z" />
    <glyph glyph-name="maihanakatthai" unicode="&#xd1;" 
d="M-285 1218v-80q0 -14 10.5 -24.5t24.5 -10.5h250v-103h-250q-27 0 -53.5 7.5t-47.5 24t-34 43t-13 63.5v80h113z" />
    <glyph glyph-name="maihanakatthai" unicode="&#xe31;" 
d="M-285 1218v-80q0 -14 10.5 -24.5t24.5 -10.5h250v-103h-250q-27 0 -53.5 7.5t-47.5 24t-34 43t-13 63.5v80h113z" />
    <glyph glyph-name="saraaathai" unicode="&#xd2;" horiz-adv-x="596" 
d="M380 645q0 35 -3 63.5t-15 48t-36 30t-65 10.5q-27 0 -47 -2t-37.5 -10.5t-35 -24t-39.5 -42.5l-72 69q30 42 57 65t54.5 33.5t56.5 12.5t63 2q88 0 135.5 -19.5t69.5 -58.5t26 -97t4 -136v-589h-116v645v0z" />
    <glyph glyph-name="saraaathai" unicode="&#xe32;" horiz-adv-x="596" 
d="M380 645q0 35 -3 63.5t-15 48t-36 30t-65 10.5q-27 0 -47 -2t-37.5 -10.5t-35 -24t-39.5 -42.5l-72 69q30 42 57 65t54.5 33.5t56.5 12.5t63 2q88 0 135.5 -19.5t69.5 -58.5t26 -97t4 -136v-589h-116v645v0z" />
    <glyph glyph-name="saraamthai" unicode="&#xd3;" horiz-adv-x="549" 
d="M-215 1230q24 0 45 -9t36.5 -24.5t24.5 -36.5t9 -45t-9 -44.5t-24.5 -36.5t-36.5 -25t-45 -9t-44.5 9t-36.5 25t-25 36.5t-9 44.5t9 45t25 36.5t36.5 24.5t44.5 9zM-215 1075q17 0 28.5 11.5t11.5 28.5t-11.5 28.5t-28.5 11.5t-28.5 -11.5t-11.5 -28.5t11.5 -28.5
t28.5 -11.5zM333 645q0 35 -3 63.5t-15 48t-36 30t-65 10.5q-27 0 -47 -2t-37.5 -10.5t-35 -24t-39.5 -42.5l-72 69q30 42 57 65t54.5 33.5t56.5 12.5t63 2q88 0 135.5 -19.5t69.5 -58.5t26 -97t4 -136v-589h-116v645z" />
    <glyph glyph-name="saraamthai" unicode="&#xe33;" horiz-adv-x="549" 
d="M-215 1230q24 0 45 -9t36.5 -24.5t24.5 -36.5t9 -45t-9 -44.5t-24.5 -36.5t-36.5 -25t-45 -9t-44.5 9t-36.5 25t-25 36.5t-9 44.5t9 45t25 36.5t36.5 24.5t44.5 9zM-215 1075q17 0 28.5 11.5t11.5 28.5t-11.5 28.5t-28.5 11.5t-28.5 -11.5t-11.5 -28.5t11.5 -28.5
t28.5 -11.5zM333 645q0 35 -3 63.5t-15 48t-36 30t-65 10.5q-27 0 -47 -2t-37.5 -10.5t-35 -24t-39.5 -42.5l-72 69q30 42 57 65t54.5 33.5t56.5 12.5t63 2q88 0 135.5 -19.5t69.5 -58.5t26 -97t4 -136v-589h-116v645z" />
    <glyph glyph-name="saraithai" unicode="&#xd4;" 
d="M-100 1000h-504v107h504v-107z" />
    <glyph glyph-name="saraithai" unicode="&#xe34;" 
d="M-100 1000h-504v107h504v-107z" />
    <glyph glyph-name="saraiithai" unicode="&#xd5;" 
d="M-100 1190v-79q0 -40 -13 -62t-34 -33t-47.5 -13.5t-53.5 -2.5h-369v107h369q31 0 31 4v79h117z" />
    <glyph glyph-name="saraiithai" unicode="&#xe35;" 
d="M-100 1190v-79q0 -40 -13 -62t-34 -33t-47.5 -13.5t-53.5 -2.5h-369v107h369q31 0 31 4v79h117z" />
    <glyph glyph-name="sarauethai" unicode="&#xd6;" 
d="M-215 1230q24 0 44.5 -9t36.5 -25t25 -36.5t9 -44.5t-9 -45t-25 -36.5t-36.5 -24.5t-44.5 -9h-395v103h280q0 28 9 51.5t24.5 40t36.5 26t45 9.5zM-216 1075q17 0 28.5 11.5t11.5 28.5t-11.5 28.5t-28.5 11.5t-28.5 -11.5t-11.5 -28.5t11.5 -28.5t28.5 -11.5z" />
    <glyph glyph-name="sarauethai" unicode="&#xe36;" 
d="M-215 1230q24 0 44.5 -9t36.5 -25t25 -36.5t9 -44.5t-9 -45t-25 -36.5t-36.5 -24.5t-44.5 -9h-395v103h280q0 28 9 51.5t24.5 40t36.5 26t45 9.5zM-216 1075q17 0 28.5 11.5t11.5 28.5t-11.5 28.5t-28.5 11.5t-28.5 -11.5t-11.5 -28.5t11.5 -28.5t28.5 -11.5z" />
    <glyph glyph-name="saraueethai" unicode="&#xd7;" 
d="M-100 1186v-78q0 -39 -12.5 -60.5t-33 -32t-46 -13t-51.5 -2.5h-359v103h188v83h114v-81q4 0 18 0.5t29.5 1.5t27.5 2l12 1v76h113z" />
    <glyph glyph-name="saraueethai" unicode="&#xe37;" 
d="M-100 1186v-78q0 -39 -12.5 -60.5t-33 -32t-46 -13t-51.5 -2.5h-359v103h188v83h114v-81q4 0 18 0.5t29.5 1.5t27.5 2l12 1v76h113z" />
    <glyph glyph-name="sarauthai" unicode="&#xd8;" 
d="M-214 -100q30 0 51.5 -4.5t35.5 -17t20.5 -36t6.5 -62.5v-137h-113v141q0 9 -1 16t-8 7h-35v93h43v0z" />
    <glyph glyph-name="sarauthai" unicode="&#xe38;" 
d="M-214 -100q30 0 51.5 -4.5t35.5 -17t20.5 -36t6.5 -62.5v-137h-113v141q0 9 -1 16t-8 7h-35v93h43v0z" />
    <glyph glyph-name="sarauuthai" unicode="&#xd9;" 
d="M-100 -100v-129q0 -38 -12 -62.5t-32.5 -39t-46.5 -20t-53 -5.5h-12q-27 0 -53 5t-47 18.5t-33.5 37.5t-12.5 62v17q0 10 -1 16.5t-6 6.5h-38v93h43q30 0 51.5 -4.5t36 -17t21 -36t6.5 -61.5v-10q0 -13 9.5 -21.5t23.5 -8.5h12q14 0 22.5 8.5t8.5 21.5v129h113z" />
    <glyph glyph-name="sarauuthai" unicode="&#xe39;" 
d="M-100 -100v-129q0 -38 -12 -62.5t-32.5 -39t-46.5 -20t-53 -5.5h-12q-27 0 -53 5t-47 18.5t-33.5 37.5t-12.5 62v17q0 10 -1 16.5t-6 6.5h-38v93h43q30 0 51.5 -4.5t36 -17t21 -36t6.5 -61.5v-10q0 -13 9.5 -21.5t23.5 -8.5h12q14 0 22.5 8.5t8.5 21.5v129h113z" />
    <glyph glyph-name="phinthuthai" unicode="&#xda;" 
 />
    <glyph glyph-name="phinthuthai" unicode="&#xe3a;" 
 />
    <glyph glyph-name="nptp3.001march2007p" unicode="&#xdb;" 
 />
    <glyph glyph-name="nptp3.001march2007p" unicode="&#xe3b;" 
 />
    <glyph glyph-name="nptp3.001march2007u" unicode="&#xdc;" 
 />
    <glyph glyph-name="nptp3.001march2007u" unicode="&#xe3c;" 
 />
    <glyph glyph-name="nptp3.001march2007c" unicode="&#xdd;" 
 />
    <glyph glyph-name="nptp3.001march2007c" unicode="&#xe3d;" 
 />
    <glyph glyph-name="bahtthai" unicode="&#xdf;" horiz-adv-x="988" 
d="M888 705q0 -78 -9.5 -130t-38.5 -81q16 -11 26 -24t14.5 -30.5t6 -40.5t1.5 -55v-211q0 -42 -12.5 -68t-33.5 -40.5t-48 -19.5t-57 -5h-186v-94h-113v94h-178q-29 0 -58 5t-51.5 19.5t-36.5 40.5t-14 68v572q0 162 85 248.5t253 97.5v96h113v-97q169 -8 253 -95t84 -250z
M213 542h225v403q-103 -12 -164 -71t-61 -169v-163zM438 93v341h-225v-308q0 -15 14 -24t33 -9h178zM776 279q0 40 -3.5 69.5t-17 48.5t-40.5 28t-74 9h-90v-341h186q17 0 28 9t11 24v153zM776 705q0 110 -60.5 169t-164.5 71v-403h90q42 0 68.5 9.5t41.5 29t20 50.5t5 74z
" />
    <glyph glyph-name="bahtthai" unicode="&#xe3f;" horiz-adv-x="988" 
d="M888 705q0 -78 -9.5 -130t-38.5 -81q16 -11 26 -24t14.5 -30.5t6 -40.5t1.5 -55v-211q0 -42 -12.5 -68t-33.5 -40.5t-48 -19.5t-57 -5h-186v-94h-113v94h-178q-29 0 -58 5t-51.5 19.5t-36.5 40.5t-14 68v572q0 162 85 248.5t253 97.5v96h113v-97q169 -8 253 -95t84 -250z
M213 542h225v403q-103 -12 -164 -71t-61 -169v-163zM438 93v341h-225v-308q0 -15 14 -24t33 -9h178zM776 279q0 40 -3.5 69.5t-17 48.5t-40.5 28t-74 9h-90v-341h186q17 0 28 9t11 24v153zM776 705q0 110 -60.5 169t-164.5 71v-403h90q42 0 68.5 9.5t41.5 29t20 50.5t5 74z
" />
    <glyph glyph-name="saraethai" unicode="&#xe0;" horiz-adv-x="352" 
d="M310 93v-93h-69q-26 0 -51.5 4.5t-45.5 18t-32 36.5t-12 61v770h112v-768q0 -13 8 -21t21 -8h69z" />
    <glyph glyph-name="saraethai" unicode="&#xe40;" horiz-adv-x="352" 
d="M310 93v-93h-69q-26 0 -51.5 4.5t-45.5 18t-32 36.5t-12 61v770h112v-768q0 -13 8 -21t21 -8h69z" />
    <glyph glyph-name="saraaethai" unicode="&#xe1;" horiz-adv-x="622" 
d="M310 93v-93h-69q-26 0 -51.5 4.5t-45.5 18t-32 36.5t-12 61v770h112v-768q0 -13 8 -21t21 -8h69zM580 93v-93h-69q-26 0 -51.5 4.5t-45.5 18t-32 36.5t-12 61v770h112v-768q0 -13 8 -21t21 -8h69z" />
    <glyph glyph-name="saraaethai" unicode="&#xe41;" horiz-adv-x="622" 
d="M310 93v-93h-69q-26 0 -51.5 4.5t-45.5 18t-32 36.5t-12 61v770h112v-768q0 -13 8 -21t21 -8h69zM580 93v-93h-69q-26 0 -51.5 4.5t-45.5 18t-32 36.5t-12 61v770h112v-768q0 -13 8 -21t21 -8h69z" />
    <glyph glyph-name="saraothai" unicode="&#xe2;" horiz-adv-x="362" 
d="M136 1147q-14 0 -21 -6t-12 -17q43 -22 69 -55t39 -68.5t17 -70t4 -58.5v-741q0 -14 6 -26t17 -12h68v-93h-68q-68 0 -102 36t-34 119v717q0 25 -2 48.5t-14.5 47t-40 47.5t-77.5 50q0 53 11 88.5t30.5 57t47.5 30.5t62 9h326v-103h-326v0z" />
    <glyph glyph-name="saraothai" unicode="&#xe42;" horiz-adv-x="362" 
d="M136 1147q-14 0 -21 -6t-12 -17q43 -22 69 -55t39 -68.5t17 -70t4 -58.5v-741q0 -14 6 -26t17 -12h68v-93h-68q-68 0 -102 36t-34 119v717q0 25 -2 48.5t-14.5 47t-40 47.5t-77.5 50q0 53 11 88.5t30.5 57t47.5 30.5t62 9h326v-103h-326v0z" />
    <glyph glyph-name="saraaimaimuanthai" unicode="&#xe3;" horiz-adv-x="627" 
d="M589 93v-93h-68q-68 0 -102.5 36t-34.5 120v968q-22 10 -62 16.5t-84 6.5q-57 0 -89 -46.5t-32 -148.5q0 -50 9.5 -84.5t25 -55.5t35.5 -30.5t40 -9.5q14 0 33.5 1t46.5 7v-101q-24 -4 -37 -6t-20.5 -3t-13.5 -1.5t-17 -0.5q-35 0 -71.5 16t-66.5 50.5t-49 88.5t-19 129
t16.5 130.5t46 93t71 56t91.5 18.5q36 0 74 -6t72.5 -16t63.5 -22.5t49 -24.5v-1027q0 -27 6.5 -44t17.5 -17h68z" />
    <glyph glyph-name="saraaimaimuanthai" unicode="&#xe43;" horiz-adv-x="627" 
d="M589 93v-93h-68q-68 0 -102.5 36t-34.5 120v968q-22 10 -62 16.5t-84 6.5q-57 0 -89 -46.5t-32 -148.5q0 -50 9.5 -84.5t25 -55.5t35.5 -30.5t40 -9.5q14 0 33.5 1t46.5 7v-101q-24 -4 -37 -6t-20.5 -3t-13.5 -1.5t-17 -0.5q-35 0 -71.5 16t-66.5 50.5t-49 88.5t-19 129
t16.5 130.5t46 93t71 56t91.5 18.5q36 0 74 -6t72.5 -16t63.5 -22.5t49 -24.5v-1027q0 -27 6.5 -44t17.5 -17h68z" />
    <glyph glyph-name="saraaimaimalaithai" unicode="&#xe4;" horiz-adv-x="388" 
d="M258 131q0 -14 5 -26t16 -12h69v-93h-68q-67 0 -101 36t-34 120v716q0 24 4 58.5t18 70t39.5 68.5t69.5 55q-5 11 -12.5 17t-21.5 6h-264v103h264q34 0 62 -9t47.5 -30.5t30.5 -57t11 -88.5q-51 -26 -78 -50t-40 -47.5t-15 -47t-2 -48.5v-741v0z" />
    <glyph glyph-name="saraaimaimalaithai" unicode="&#xe44;" horiz-adv-x="388" 
d="M258 131q0 -14 5 -26t16 -12h69v-93h-68q-67 0 -101 36t-34 120v716q0 24 4 58.5t18 70t39.5 68.5t69.5 55q-5 11 -12.5 17t-21.5 6h-264v103h264q34 0 62 -9t47.5 -30.5t30.5 -57t11 -88.5q-51 -26 -78 -50t-40 -47.5t-15 -47t-2 -48.5v-741v0z" />
    <glyph glyph-name="lakkhangyaothai" unicode="&#xe5;" horiz-adv-x="596" 
d="M380 645q0 35 -3 63.5t-15 48t-36 30t-65 10.5q-27 0 -47 -2t-37.5 -10.5t-35 -24t-39.5 -42.5l-72 69q30 42 57 65t54.5 33.5t56.5 12.5t63 2q88 0 135.5 -19.5t69.5 -58.5t26 -97t4 -136v-939h-116v995v0z" />
    <glyph glyph-name="lakkhangyaothai" unicode="&#xe45;" horiz-adv-x="596" 
d="M380 645q0 35 -3 63.5t-15 48t-36 30t-65 10.5q-27 0 -47 -2t-37.5 -10.5t-35 -24t-39.5 -42.5l-72 69q30 42 57 65t54.5 33.5t56.5 12.5t63 2q88 0 135.5 -19.5t69.5 -58.5t26 -97t4 -136v-939h-116v995v0z" />
    <glyph glyph-name="maiyamokthai" unicode="&#xe6;" horiz-adv-x="737" 
d="M473 900q27 -4 52 -16t46.5 -27.5t38.5 -31t27 -25.5v-900h-113v873q0 3 -7 7.5t-37 16.5q-26 -19 -55.5 -41t-52.5 -40l-115 81q-20 -3 -39 -11.5t-33.5 -21.5t-23.5 -28.5t-9 -33.5q0 -19 9 -37t25 -32.5t37 -23.5t44 -9h56v-104h-56q-44 0 -85.5 15.5t-73 43t-50.5 65
t-19 82.5q0 44 19.5 80t52.5 62t76.5 40.5t91.5 14.5l94 -67z" />
    <glyph glyph-name="maiyamokthai" unicode="&#xe46;" horiz-adv-x="737" 
d="M473 900q27 -4 52 -16t46.5 -27.5t38.5 -31t27 -25.5v-900h-113v873q0 3 -7 7.5t-37 16.5q-26 -19 -55.5 -41t-52.5 -40l-115 81q-20 -3 -39 -11.5t-33.5 -21.5t-23.5 -28.5t-9 -33.5q0 -19 9 -37t25 -32.5t37 -23.5t44 -9h56v-104h-56q-44 0 -85.5 15.5t-73 43t-50.5 65
t-19 82.5q0 44 19.5 80t52.5 62t76.5 40.5t91.5 14.5l94 -67z" />
    <glyph glyph-name="maitaikhuthai" unicode="&#xe7;" 
d="M-100 1348v-47q0 -69 -36.5 -97.5t-119.5 -28.5h-148q-14 0 -22.5 -4.5t-8.5 -7.5l-6 -54l94 31l103 -35h84v-105h-103l-84 53l-85 -53h-115v171q0 39 12.5 60.5t32.5 31.5t46 12t52 2h171q14 0 26 6t12 18v47h95z" />
    <glyph glyph-name="maitaikhuthai" unicode="&#xe47;" 
d="M-100 1348v-47q0 -69 -36.5 -97.5t-119.5 -28.5h-148q-14 0 -22.5 -4.5t-8.5 -7.5l-6 -54l94 31l103 -35h84v-105h-103l-84 53l-85 -53h-115v171q0 39 12.5 60.5t32.5 31.5t46 12t52 2h171q14 0 26 6t12 18v47h95z" />
    <glyph glyph-name="maiekthai" unicode="&#xe8;" 
d="M-212 1300v191h112v-191h-112z" />
    <glyph glyph-name="maiekthai" unicode="&#xe48;" 
d="M-212 1300v191h112v-191h-112z" />
    <glyph glyph-name="maithothai" unicode="&#xe9;" 
d="M-394 1511q62 0 94 -28.5t37 -82.5h213v-100h-324v80q0 13 -5 25t-15 12h-68v94h68v0z" />
    <glyph glyph-name="maithothai" unicode="&#xe49;" 
d="M-394 1511q62 0 94 -28.5t37 -82.5h213v-100h-324v80q0 13 -5 25t-15 12h-68v94h68v0z" />
    <glyph glyph-name="maitrithai" unicode="&#xea;" 
d="M-100 1393v-93h-195v188q0 3 -19 3q-22 -14 -51.5 -31.5t-52.5 -30.5l-102 62q-21 0 -21 -3v-95h85v-93h-198v188q0 39 13.5 60.5t34.5 32t48 12.5t54 2l83 -51q37 23 56 34t30 17q28 0 55.5 -2t49 -12.5t35 -32t13.5 -60.5v-95h82z" />
    <glyph glyph-name="maitrithai" unicode="&#xe4a;" 
d="M-100 1393v-93h-195v188q0 3 -19 3q-22 -14 -51.5 -31.5t-52.5 -30.5l-102 62q-21 0 -21 -3v-95h85v-93h-198v188q0 39 13.5 60.5t34.5 32t48 12.5t54 2l83 -51q37 23 56 34t30 17q28 0 55.5 -2t49 -12.5t35 -32t13.5 -60.5v-95h82z" />
    <glyph glyph-name="maichattawathai" unicode="&#xeb;" 
d="M-28 1372h-72v-72h-107v72h-71v107h71v71h107v-71h72v-107z" />
    <glyph glyph-name="maichattawathai" unicode="&#xe4b;" 
d="M-28 1372h-72v-72h-107v72h-71v107h71v71h107v-71h72v-107z" />
    <glyph glyph-name="thanthakhatthai" unicode="&#xec;" 
d="M-334 1300v78q0 36 12.5 62t33 42t46.5 23.5t52 7.5h144v-104h-144q-14 0 -22 -8.5t-8 -22.5v-78h-114z" />
    <glyph glyph-name="thanthakhatthai" unicode="&#xe4c;" 
d="M-334 1300v78q0 36 12.5 62t33 42t46.5 23.5t52 7.5h144v-104h-144q-14 0 -22 -8.5t-8 -22.5v-78h-114z" />
    <glyph glyph-name="nikhahitthai" unicode="&#xed;" 
d="M-215 1230q24 0 45 -9t36.5 -24.5t24.5 -36.5t9 -45t-9 -44.5t-24.5 -36.5t-36.5 -25t-45 -9t-44.5 9t-36.5 25t-25 36.5t-9 44.5t9 45t25 36.5t36.5 24.5t44.5 9zM-215 1075q17 0 28.5 11.5t11.5 28.5t-11.5 28.5t-28.5 11.5t-28.5 -11.5t-11.5 -28.5t11.5 -28.5
t28.5 -11.5z" />
    <glyph glyph-name="nikhahitthai" unicode="&#xe4d;" 
d="M-215 1230q24 0 45 -9t36.5 -24.5t24.5 -36.5t9 -45t-9 -44.5t-24.5 -36.5t-36.5 -25t-45 -9t-44.5 9t-36.5 25t-25 36.5t-9 44.5t9 45t25 36.5t36.5 24.5t44.5 9zM-215 1075q17 0 28.5 11.5t11.5 28.5t-11.5 28.5t-28.5 11.5t-28.5 -11.5t-11.5 -28.5t11.5 -28.5
t28.5 -11.5z" />
    <glyph glyph-name="yamakkanthai" unicode="&#xee;" 
 />
    <glyph glyph-name="yamakkanthai" unicode="&#xe4e;" 
 />
    <glyph glyph-name="fongmanthai" unicode="&#xef;" horiz-adv-x="4" 
 />
    <glyph glyph-name="fongmanthai" unicode="&#xe4f;" horiz-adv-x="4" 
 />
    <glyph glyph-name="zerothai" unicode="&#xf0;" horiz-adv-x="832" 
d="M417 900q76 0 139 -29t108 -87t69.5 -144.5t24.5 -201.5q0 -82 -16.5 -162.5t-56 -144t-105 -102.5t-164.5 -39q-76 0 -139 27t-108 82.5t-70 140t-25 198.5q0 115 25 201.5t70.5 144.5t108.5 87t139 29zM416 93q51 0 93.5 21.5t73 65t47 108t16.5 150.5q0 87 -16.5 154
t-46.5 112.5t-72.5 69t-93.5 23.5t-93.5 -23.5t-72.5 -69t-47 -112.5t-17 -154q0 -59 10.5 -120t36.5 -111t70 -81.5t112 -32.5z" />
    <glyph glyph-name="zerothai" unicode="&#xe50;" horiz-adv-x="832" 
d="M417 900q76 0 139 -29t108 -87t69.5 -144.5t24.5 -201.5q0 -82 -16.5 -162.5t-56 -144t-105 -102.5t-164.5 -39q-76 0 -139 27t-108 82.5t-70 140t-25 198.5q0 115 25 201.5t70.5 144.5t108.5 87t139 29zM416 93q51 0 93.5 21.5t73 65t47 108t16.5 150.5q0 87 -16.5 154
t-46.5 112.5t-72.5 69t-93.5 23.5t-93.5 -23.5t-72.5 -69t-47 -112.5t-17 -154q0 -59 10.5 -120t36.5 -111t70 -81.5t112 -32.5z" />
    <glyph glyph-name="onethai" unicode="&#xf1;" horiz-adv-x="811" 
d="M396 900q99 0 165 -36.5t105 -99t55.5 -146t16.5 -176.5q0 -116 -24.5 -201t-69.5 -140.5t-108 -83t-139 -27.5q-90 0 -174.5 22t-148.5 53v104q26 -12 63.5 -25.5t80.5 -25t89 -18.5t90 -7q51 0 93.5 22t72.5 66t46.5 109.5t16.5 151.5q0 87 -16.5 153t-47 111t-73 68
t-93.5 23q-36 0 -66 -1.5t-53 -9.5t-40.5 -26t-28.5 -50.5t-16.5 -82.5t-5.5 -123q0 -14 9 -22t22 -8h180v-105h-180q-27 0 -52.5 6.5t-45.5 21.5t-32.5 40t-12.5 62q0 100 9 168.5t27 113t45 69t62.5 35.5t80 13t98.5 2z" />
    <glyph glyph-name="onethai" unicode="&#xe51;" horiz-adv-x="811" 
d="M396 900q99 0 165 -36.5t105 -99t55.5 -146t16.5 -176.5q0 -116 -24.5 -201t-69.5 -140.5t-108 -83t-139 -27.5q-90 0 -174.5 22t-148.5 53v104q26 -12 63.5 -25.5t80.5 -25t89 -18.5t90 -7q51 0 93.5 22t72.5 66t46.5 109.5t16.5 151.5q0 87 -16.5 153t-47 111t-73 68
t-93.5 23q-36 0 -66 -1.5t-53 -9.5t-40.5 -26t-28.5 -50.5t-16.5 -82.5t-5.5 -123q0 -14 9 -22t22 -8h180v-105h-180q-27 0 -52.5 6.5t-45.5 21.5t-32.5 40t-12.5 62q0 100 9 168.5t27 113t45 69t62.5 35.5t80 13t98.5 2z" />
    <glyph glyph-name="twothai" unicode="&#xf2;" horiz-adv-x="1156" 
d="M811 900q55 0 100 -23.5t77.5 -68t50 -109.5t17.5 -148v-411q0 -64 -36.5 -102t-100.5 -38h-634q-135 0 -135 165v802q0 14 -6 27t-17 13h-67v93h67q68 0 102 -36.5t34 -118.5v-815q0 -14 5.5 -25.5t16.5 -11.5h634q10 0 17 11.5t7 24.5v422q0 56 -8.5 101.5t-25.5 77.5
t-41.5 49.5t-56.5 17.5q-42 0 -75.5 -27t-53.5 -62q4 -24 6.5 -54.5t2.5 -62.5v-117h-111v117q0 29 -4 64.5t-16 67t-35 53t-61 21.5t-68.5 -17.5t-59.5 -45.5v134q57 32 128 32q51 0 97.5 -22t76.5 -66q31 38 74 63t99 25z" />
    <glyph glyph-name="twothai" unicode="&#xe52;" horiz-adv-x="1156" 
d="M811 900q55 0 100 -23.5t77.5 -68t50 -109.5t17.5 -148v-411q0 -64 -36.5 -102t-100.5 -38h-634q-135 0 -135 165v802q0 14 -6 27t-17 13h-67v93h67q68 0 102 -36.5t34 -118.5v-815q0 -14 5.5 -25.5t16.5 -11.5h634q10 0 17 11.5t7 24.5v422q0 56 -8.5 101.5t-25.5 77.5
t-41.5 49.5t-56.5 17.5q-42 0 -75.5 -27t-53.5 -62q4 -24 6.5 -54.5t2.5 -62.5v-117h-111v117q0 29 -4 64.5t-16 67t-35 53t-61 21.5t-68.5 -17.5t-59.5 -45.5v134q57 32 128 32q51 0 97.5 -22t76.5 -66q31 38 74 63t99 25z" />
    <glyph glyph-name="threethai" unicode="&#xf3;" horiz-adv-x="1036" 
d="M690 797q-20 0 -38.5 -7.5t-35 -20t-30.5 -28.5t-24 -34q4 -24 7 -54.5t3 -62.5v-116h-113v116q0 29 -3.5 65t-15.5 67.5t-35 53t-61 21.5q-32 0 -56 -17.5t-41 -50t-25.5 -78t-8.5 -100.5v-413q0 -14 6.5 -29.5t17.5 -15.5h164v-93h-164q-66 0 -101.5 38.5t-35.5 101.5
v411q0 83 17.5 148t49.5 109.5t77 68t100 23.5q51 0 97.5 -22.5t76.5 -64.5q31 42 72.5 64.5t99.5 22.5q55 0 100.5 -23.5t78 -68t50 -109.5t17.5 -148v-551h-113v551q0 55 -9 100.5t-26 78t-41.5 50t-56.5 17.5z" />
    <glyph glyph-name="threethai" unicode="&#xe53;" horiz-adv-x="1036" 
d="M690 797q-20 0 -38.5 -7.5t-35 -20t-30.5 -28.5t-24 -34q4 -24 7 -54.5t3 -62.5v-116h-113v116q0 29 -3.5 65t-15.5 67.5t-35 53t-61 21.5q-32 0 -56 -17.5t-41 -50t-25.5 -78t-8.5 -100.5v-413q0 -14 6.5 -29.5t17.5 -15.5h164v-93h-164q-66 0 -101.5 38.5t-35.5 101.5
v411q0 83 17.5 148t49.5 109.5t77 68t100 23.5q51 0 97.5 -22.5t76.5 -64.5q31 42 72.5 64.5t99.5 22.5q55 0 100.5 -23.5t78 -68t50 -109.5t17.5 -148v-551h-113v551q0 55 -9 100.5t-26 78t-41.5 50t-56.5 17.5z" />
    <glyph glyph-name="fourthai" unicode="&#xf4;" horiz-adv-x="1012" 
d="M959 93v-93h-568q-155 0 -235.5 108t-80.5 338q0 115 25 199t70 138.5t108 80.5t140 26h190q115 0 169 54t54 147h111q0 -68 -20 -122t-61 -92.5t-104 -59t-149 -20.5h-189q-51 0 -93.5 -22.5t-73 -67t-47.5 -110t-17 -151.5q0 -174 50.5 -263.5t152.5 -89.5h112
q-38 38 -55.5 88.5t-18.5 110.5v44q0 49 16.5 78t40.5 44.5t50.5 20.5t45.5 5h72v-98h-72q-18 0 -29 -16t-11 -34v-44q0 -92 67 -145.5t206 -53.5h144z" />
    <glyph glyph-name="fourthai" unicode="&#xe54;" horiz-adv-x="1012" 
d="M959 93v-93h-568q-155 0 -235.5 108t-80.5 338q0 115 25 199t70 138.5t108 80.5t140 26h190q115 0 169 54t54 147h111q0 -68 -20 -122t-61 -92.5t-104 -59t-149 -20.5h-189q-51 0 -93.5 -22.5t-73 -67t-47.5 -110t-17 -151.5q0 -174 50.5 -263.5t152.5 -89.5h112
q-38 38 -55.5 88.5t-18.5 110.5v44q0 49 16.5 78t40.5 44.5t50.5 20.5t45.5 5h72v-98h-72q-18 0 -29 -16t-11 -34v-44q0 -92 67 -145.5t206 -53.5h144z" />
    <glyph glyph-name="fivethai" unicode="&#xf5;" horiz-adv-x="1011" 
d="M958 93v-93h-568q-155 0 -235 108t-80 338q0 105 20.5 184.5t58 134.5t91.5 86t120 39q0 49 29 78t71 29q22 0 40.5 -8.5t32 -23t21.5 -34t8 -41.5h40q115 0 169 54t54 147h111q0 -68 -20 -122t-61 -92.5t-103.5 -59t-148.5 -20.5h-190q-51 0 -93.5 -22.5t-72.5 -67
t-47 -110t-17 -151.5q0 -173 50 -263t152 -90h113q-37 38 -55.5 88.5t-19.5 110.5v44q0 49 16.5 78t40.5 44.5t50.5 20.5t45.5 5h73v-98h-73q-18 0 -29 -16t-11 -34v-44q0 -92 67.5 -145.5t206.5 -53.5h143zM465 932q-15 0 -25.5 -10.5t-10.5 -25.5q0 -14 10.5 -25t25.5 -11
t25.5 11t10.5 25q0 15 -10.5 25.5t-25.5 10.5z" />
    <glyph glyph-name="fivethai" unicode="&#xe55;" horiz-adv-x="1011" 
d="M958 93v-93h-568q-155 0 -235 108t-80 338q0 105 20.5 184.5t58 134.5t91.5 86t120 39q0 49 29 78t71 29q22 0 40.5 -8.5t32 -23t21.5 -34t8 -41.5h40q115 0 169 54t54 147h111q0 -68 -20 -122t-61 -92.5t-103.5 -59t-148.5 -20.5h-190q-51 0 -93.5 -22.5t-72.5 -67
t-47 -110t-17 -151.5q0 -173 50 -263t152 -90h113q-37 38 -55.5 88.5t-19.5 110.5v44q0 49 16.5 78t40.5 44.5t50.5 20.5t45.5 5h73v-98h-73q-18 0 -29 -16t-11 -34v-44q0 -92 67.5 -145.5t206.5 -53.5h143zM465 932q-15 0 -25.5 -10.5t-10.5 -25.5q0 -14 10.5 -25t25.5 -11
t25.5 11t10.5 25q0 15 -10.5 25.5t-25.5 10.5z" />
    <glyph glyph-name="sixthai" unicode="&#xf6;" horiz-adv-x="940" 
d="M528 900q76 0 139 -26t108 -80.5t69.5 -138.5t24.5 -199t-25 -202t-70 -145.5t-108 -88.5t-139 -30q-57 0 -104 4t-86 13t-71.5 23t-61.5 34v176q0 36 12.5 60.5t33 39.5t46 22t52.5 7h180v-104h-180q-14 0 -22.5 -8.5t-8.5 -22.5v-107q31 -16 84.5 -25t125.5 -9
q51 0 93.5 24t72.5 70.5t46.5 114t16.5 154.5q0 86 -16.5 150t-46.5 106.5t-72 63.5t-93 21q-43 0 -86.5 -7t-82 -17.5t-69.5 -23t-47 -23.5q-53 13 -82.5 53t-29.5 109v80q0 14 -6 26.5t-17 12.5h-67v93h67q136 0 136 -132v-80q0 -8 1.5 -19.5t4.5 -20.5q57 23 125.5 37.5
t152.5 14.5z" />
    <glyph glyph-name="sixthai" unicode="&#xe56;" horiz-adv-x="940" 
d="M528 900q76 0 139 -26t108 -80.5t69.5 -138.5t24.5 -199t-25 -202t-70 -145.5t-108 -88.5t-139 -30q-57 0 -104 4t-86 13t-71.5 23t-61.5 34v176q0 36 12.5 60.5t33 39.5t46 22t52.5 7h180v-104h-180q-14 0 -22.5 -8.5t-8.5 -22.5v-107q31 -16 84.5 -25t125.5 -9
q51 0 93.5 24t72.5 70.5t46.5 114t16.5 154.5q0 86 -16.5 150t-46.5 106.5t-72 63.5t-93 21q-43 0 -86.5 -7t-82 -17.5t-69.5 -23t-47 -23.5q-53 13 -82.5 53t-29.5 109v80q0 14 -6 26.5t-17 12.5h-67v93h67q136 0 136 -132v-80q0 -8 1.5 -19.5t4.5 -20.5q57 23 125.5 37.5
t152.5 14.5z" />
    <glyph glyph-name="seventhai" unicode="&#xf7;" horiz-adv-x="1271" 
d="M1222 1100v-93h-67q-11 0 -17.5 -12.5t-6.5 -25.5v-807q0 -69 -25 -110t-74 -52h-210v551q0 55 -9 100.5t-26 78t-41.5 50t-56.5 17.5q-42 0 -74 -27t-54 -61q4 -23 7 -55t3 -64v-117h-113v117q0 29 -3.5 65t-15.5 67.5t-34.5 53t-60.5 21.5q-32 0 -56 -17.5t-41 -50
t-25.5 -78t-8.5 -100.5v-413q0 -14 6 -29.5t17 -15.5h165v-93h-165q-65 0 -100.5 38.5t-35.5 102.5v410q0 83 17.5 148t49 109.5t76.5 68t101 23.5q50 0 96 -22.5t76 -64.5q31 41 73.5 64t99.5 23q55 0 100.5 -23.5t78 -68t50 -109.5t17.5 -148v-458h78q3 5 4 13.5t1 16.5
v822q0 83 34 119t103 36h67z" />
    <glyph glyph-name="seventhai" unicode="&#xe57;" horiz-adv-x="1271" 
d="M1222 1100v-93h-67q-11 0 -17.5 -12.5t-6.5 -25.5v-807q0 -69 -25 -110t-74 -52h-210v551q0 55 -9 100.5t-26 78t-41.5 50t-56.5 17.5q-42 0 -74 -27t-54 -61q4 -23 7 -55t3 -64v-117h-113v117q0 29 -3.5 65t-15.5 67.5t-34.5 53t-60.5 21.5q-32 0 -56 -17.5t-41 -50
t-25.5 -78t-8.5 -100.5v-413q0 -14 6 -29.5t17 -15.5h165v-93h-165q-65 0 -100.5 38.5t-35.5 102.5v410q0 83 17.5 148t49 109.5t76.5 68t101 23.5q50 0 96 -22.5t76 -64.5q31 41 73.5 64t99.5 23q55 0 100.5 -23.5t78 -68t50 -109.5t17.5 -148v-458h78q3 5 4 13.5t1 16.5
v822q0 83 34 119t103 36h67z" />
    <glyph glyph-name="eightthai" unicode="&#xf8;" horiz-adv-x="985" 
d="M731 451q19 0 45.5 -5t50.5 -21t41 -45t17 -78v-44q-1 -90 -46.5 -159t-141.5 -111l-124 84l-119 -82q-201 0 -290.5 113.5t-89.5 342.5q0 115 25 199t70.5 138.5t108.5 80.5t139 26h189q116 0 171 54t55 146h111q0 -67 -20.5 -121t-62 -92t-105 -59t-149.5 -21h-189
q-51 0 -93.5 -22.5t-72.5 -67t-47 -110t-17 -151.5t14 -152t43.5 -110.5t76 -67.5t111.5 -23l140 96l129 -96q37 24 54 65.5t17 99.5v44q0 18 -12 34t-29 16h-72v99h72v0z" />
    <glyph glyph-name="eightthai" unicode="&#xe58;" horiz-adv-x="985" 
d="M731 451q19 0 45.5 -5t50.5 -21t41 -45t17 -78v-44q-1 -90 -46.5 -159t-141.5 -111l-124 84l-119 -82q-201 0 -290.5 113.5t-89.5 342.5q0 115 25 199t70.5 138.5t108.5 80.5t139 26h189q116 0 171 54t55 146h111q0 -67 -20.5 -121t-62 -92t-105 -59t-149.5 -21h-189
q-51 0 -93.5 -22.5t-72.5 -67t-47 -110t-17 -151.5t14 -152t43.5 -110.5t76 -67.5t111.5 -23l140 96l129 -96q37 24 54 65.5t17 99.5v44q0 18 -12 34t-29 16h-72v99h72v0z" />
    <glyph glyph-name="ninethai" unicode="&#xf9;" horiz-adv-x="1264" 
d="M1222 1100v-93h-67q-11 0 -17.5 -12.5t-6.5 -25.5v-437q0 -69 -25 -110t-74 -52h-210v181q0 55 -9 100.5t-26 78t-41.5 50t-56.5 17.5q-42 0 -74 -27t-54 -61q4 -23 7 -55t3 -64v-117h-113v117q0 29 -3.5 65t-15.5 67.5t-34.5 53t-60.5 21.5q-32 0 -56 -17.5t-41 -50
t-25.5 -78t-8.5 -100.5v-413q0 -14 6 -29.5t17 -15.5h165v-93h-165q-65 0 -100.5 38.5t-35.5 102.5v410q0 83 17.5 148t49 109.5t76.5 68t101 23.5q50 0 96 -22.5t76 -64.5q31 41 73.5 64t99.5 23q55 0 100.5 -23.5t78 -68t50 -109.5t17.5 -148v-88h78q3 5 4 13.5t1 16.5
v452q0 83 34 119t103 36h67z" />
    <glyph glyph-name="ninethai" unicode="&#xe59;" horiz-adv-x="1264" 
d="M1222 1100v-93h-67q-11 0 -17.5 -12.5t-6.5 -25.5v-437q0 -69 -25 -110t-74 -52h-210v181q0 55 -9 100.5t-26 78t-41.5 50t-56.5 17.5q-42 0 -74 -27t-54 -61q4 -23 7 -55t3 -64v-117h-113v117q0 29 -3.5 65t-15.5 67.5t-34.5 53t-60.5 21.5q-32 0 -56 -17.5t-41 -50
t-25.5 -78t-8.5 -100.5v-413q0 -14 6 -29.5t17 -15.5h165v-93h-165q-65 0 -100.5 38.5t-35.5 102.5v410q0 83 17.5 148t49 109.5t76.5 68t101 23.5q50 0 96 -22.5t76 -64.5q31 41 73.5 64t99.5 23q55 0 100.5 -23.5t78 -68t50 -109.5t17.5 -148v-88h78q3 5 4 13.5t1 16.5
v452q0 83 34 119t103 36h67z" />
    <glyph glyph-name="angkhankhuthai" unicode="&#xfa;" horiz-adv-x="1" 
 />
    <glyph glyph-name="angkhankhuthai" unicode="&#xe5a;" horiz-adv-x="1" 
 />
    <glyph glyph-name="khomutthai" unicode="&#xfb;" 
 />
    <glyph glyph-name="khomutthai" unicode="&#xe5b;" 
 />
    <glyph glyph-name="saraulowthai" unicode="&#xfc;" 
d="M-214 -250q30 0 51.5 -4.5t35.5 -17t20.5 -36t6.5 -62.5v-137h-113v141q0 9 -1 16t-8 7h-35v93h43v0z" />
    <glyph glyph-name="saraulowthai" unicode="&#xf718;" 
d="M-214 -250q30 0 51.5 -4.5t35.5 -17t20.5 -36t6.5 -62.5v-137h-113v141q0 9 -1 16t-8 7h-35v93h43v0z" />
    <glyph glyph-name="sarauulowthai" unicode="&#xfd;" 
d="M-100 -250v-129q0 -38 -12 -62.5t-32.5 -39t-46.5 -20t-53 -5.5h-12q-27 0 -53 5t-47 18.5t-33.5 37.5t-12.5 62v17q0 10 -1 16.5t-6 6.5h-38v93h43q30 0 51.5 -4.5t36 -17t21 -36t6.5 -61.5v-10q0 -13 9.5 -21.5t23.5 -8.5h12q14 0 22.5 8.5t8.5 21.5v129h113z" />
    <glyph glyph-name="sarauulowthai" unicode="&#xf719;" 
d="M-100 -250v-129q0 -38 -12 -62.5t-32.5 -39t-46.5 -20t-53 -5.5h-12q-27 0 -53 5t-47 18.5t-33.5 37.5t-12.5 62v17q0 10 -1 16.5t-6 6.5h-38v93h43q30 0 51.5 -4.5t36 -17t21 -36t6.5 -61.5v-10q0 -13 9.5 -21.5t23.5 -8.5h12q14 0 22.5 8.5t8.5 21.5v129h113z" />
    <glyph glyph-name="phinthulowthai" unicode="&#xfe;" 
d="M-92 -250q10 0 17.5 -7.5t7.5 -17.5t-7.5 -17.5t-17.5 -7.5q-9 0 -17 7.5t-8 17.5t8 17.5t17 7.5z" />
    <glyph glyph-name="phinthulowthai" unicode="&#xf71a;" 
d="M-92 -250q10 0 17.5 -7.5t7.5 -17.5t-7.5 -17.5t-17.5 -7.5q-9 0 -17 7.5t-8 17.5t8 17.5t17 7.5z" />
    <glyph glyph-name="Naipol" unicode="&#xff;" horiz-adv-x="1135" 
 />
    <glyph glyph-name="nptp3.001march2007r" unicode="&#xe3e;" 
 />
    <glyph glyph-name="ZWSP" unicode="&#x200b;" 
 />
    <glyph glyph-name="uni25CC" unicode="&#x25cc;" horiz-adv-x="1049" 
 />
    <glyph glyph-name="lochula.short" horiz-adv-x="1085" 
d="M987 815q0 -44 -1 -72.5t-5 -47.5t-13.5 -31.5t-25.5 -22.5q22 -26 31.5 -60.5t13.5 -78.5v-154q0 -85 -18 -151.5t-50.5 -112.5t-79 -70t-103.5 -24q-53 0 -100 23t-78 68q-32 -40 -76.5 -65.5t-102.5 -25.5q-57 0 -103 24t-79 70t-51 112.5t-18 151.5v411q0 14 -7 26
t-18 12h-70v93h70q68 0 103.5 -33t35.5 -101v-408q0 -56 9.5 -103t27 -81t43 -52.5t57.5 -18.5q22 0 41.5 8.5t36 22t30.5 31t25 35.5q-5 24 -7 55t-2 65v580h115v-580q0 -103 28.5 -160t89.5 -57q33 0 58.5 18.5t43 52.5t26.5 81t9 103v154q0 25 -6 42t-22.5 27.5
t-46.5 15.5t-77 5v106q52 0 82.5 6t46 19.5t19.5 36t4 55.5v75h114v-75v0z" />
    <glyph glyph-name="saraamleft" horiz-adv-x="527" 
d="M-435 1232q24 0 45 -9t36.5 -24.5t24.5 -36.5t9 -45t-9 -44.5t-24.5 -36.5t-36.5 -25t-45 -9t-44.5 9t-36.5 25t-25 36.5t-9 44.5t9 45t25 36.5t36.5 24.5t44.5 9zM-435 1077q17 0 28.5 11.5t11.5 28.5t-11.5 28.5t-28.5 11.5t-28.5 -11.5t-11.5 -28.5t11.5 -28.5
t28.5 -11.5zM311 645q0 35 -3 63.5t-15 48t-36 30t-65 10.5q-27 0 -47 -2t-37.5 -10.5t-35 -24t-39.5 -42.5l-72 69q30 42 57 65t54.5 33.5t56.5 12.5t63 2q88 0 135.5 -19.5t69.5 -58.5t26 -97t4 -136v-589h-116v645z" />
    <glyph glyph-name="yamakkanleftthai" 
 />
  </font>
</defs>
</svg>
